<svg xmlns="http://www.w3.org/2000/svg" xmlns:xlink="http://www.w3.org/1999/xlink" width="1000" height="1000" viewBox="0 0 1000 1000">
<rect x="0" y="0" width="1000" height="1000" fill= "#ffffff" stroke="black" stroke-width="1" />
<circle cx="876.161829" cy="720.316840" r="2.000000" fill="black" />
<circle cx="623.838479" cy="949.117616" r="2.000000" fill="black" />
<circle cx="974.857563" cy="670.384769" r="2.000000" fill="black" />
<circle cx="550.724986" cy="362.452512" r="2.000000" fill="black" />
<circle cx="582.085264" cy="866.317611" r="2.000000" fill="black" />
<circle cx="56.426657" cy="257.064395" r="2.000000" fill="black" />
<circle cx="372.126396" cy="151.730565" r="2.000000" fill="black" />
<circle cx="505.825873" cy="204.251068" r="2.000000" fill="black" />
<circle cx="295.673305" cy="163.657727" r="2.000000" fill="black" />
<circle cx="702.239855" cy="440.530055" r="2.000000" fill="black" />
<circle cx="11.945065" cy="232.628200" r="2.000000" fill="black" />
<circle cx="661.899686" cy="766.426699" r="2.000000" fill="black" />
<circle cx="534.151568" cy="255.396281" r="2.000000" fill="black" />
<circle cx="316.832705" cy="572.677869" r="2.000000" fill="black" />
<circle cx="609.847450" cy="431.630841" r="2.000000" fill="black" />
<circle cx="85.218387" cy="486.009279" r="2.000000" fill="black" />
<circle cx="151.947681" cy="709.056866" r="2.000000" fill="black" />
<circle cx="435.126894" cy="126.805243" r="2.000000" fill="black" />
<circle cx="379.441635" cy="985.851881" r="2.000000" fill="black" />
<circle cx="489.257755" cy="961.526900" r="2.000000" fill="black" />
<circle cx="852.169491" cy="545.684413" r="2.000000" fill="black" />
<circle cx="218.591294" cy="224.295886" r="2.000000" fill="black" />
<circle cx="697.414978" cy="724.417167" r="2.000000" fill="black" />
<circle cx="428.546955" cy="993.088284" r="2.000000" fill="black" />
<circle cx="888.074895" cy="130.786809" r="2.000000" fill="black" />
<circle cx="433.618339" cy="900.019960" r="2.000000" fill="black" />
<circle cx="363.415010" cy="95.518025" r="2.000000" fill="black" />
<circle cx="666.446659" cy="897.566578" r="2.000000" fill="black" />
<circle cx="350.914306" cy="983.279364" r="2.000000" fill="black" />
<circle cx="470.244447" cy="960.761757" r="2.000000" fill="black" />
<circle cx="414.910204" cy="555.462834" r="2.000000" fill="black" />
<circle cx="446.771035" cy="566.857885" r="2.000000" fill="black" />
<circle cx="264.519700" cy="881.897930" r="2.000000" fill="black" />
<circle cx="693.663129" cy="643.961335" r="2.000000" fill="black" />
<circle cx="867.749810" cy="182.920883" r="2.000000" fill="black" />
<circle cx="605.488234" cy="719.919301" r="2.000000" fill="black" />
<circle cx="728.605297" cy="824.079529" r="2.000000" fill="black" />
<circle cx="944.215186" cy="426.020275" r="2.000000" fill="black" />
<circle cx="548.496696" cy="372.762141" r="2.000000" fill="black" />
<circle cx="419.108558" cy="436.571590" r="2.000000" fill="black" />
<circle cx="503.548950" cy="852.726897" r="2.000000" fill="black" />
<circle cx="336.591550" cy="866.963960" r="2.000000" fill="black" />
<circle cx="948.244921" cy="3.038208" r="2.000000" fill="black" />
<circle cx="764.530537" cy="299.159227" r="2.000000" fill="black" />
<circle cx="986.317572" cy="234.774984" r="2.000000" fill="black" />
<circle cx="259.920983" cy="401.227776" r="2.000000" fill="black" />
<circle cx="790.237818" cy="706.692018" r="2.000000" fill="black" />
<circle cx="968.085662" cy="54.757517" r="2.000000" fill="black" />
<circle cx="588.589948" cy="661.748790" r="2.000000" fill="black" />
<circle cx="698.718853" cy="456.339758" r="2.000000" fill="black" />
<circle cx="844.669674" cy="304.207087" r="2.000000" fill="black" />
<circle cx="176.259058" cy="573.274970" r="2.000000" fill="black" />
<circle cx="128.286616" cy="120.474244" r="2.000000" fill="black" />
<circle cx="999.295244" cy="676.783312" r="2.000000" fill="black" />
<circle cx="493.236385" cy="418.403802" r="2.000000" fill="black" />
<circle cx="113.354902" cy="996.785335" r="2.000000" fill="black" />
<circle cx="271.130698" cy="449.946453" r="2.000000" fill="black" />
<circle cx="863.749294" cy="219.375620" r="2.000000" fill="black" />
<circle cx="452.984661" cy="628.279831" r="2.000000" fill="black" />
<circle cx="518.534847" cy="439.302232" r="2.000000" fill="black" />
<circle cx="863.054815" cy="778.455830" r="2.000000" fill="black" />
<circle cx="840.530008" cy="653.292632" r="2.000000" fill="black" />
<circle cx="485.147848" cy="808.615670" r="2.000000" fill="black" />
<circle cx="708.050150" cy="73.737796" r="2.000000" fill="black" />
<circle cx="470.364459" cy="406.769003" r="2.000000" fill="black" />
<circle cx="530.077554" cy="315.034133" r="2.000000" fill="black" />
<circle cx="710.976090" cy="706.336612" r="2.000000" fill="black" />
<circle cx="888.309102" cy="839.262706" r="2.000000" fill="black" />
<circle cx="826.810856" cy="887.604347" r="2.000000" fill="black" />
<circle cx="516.046018" cy="320.047240" r="2.000000" fill="black" />
<circle cx="306.008149" cy="629.400920" r="2.000000" fill="black" />
<circle cx="316.832575" cy="577.138847" r="2.000000" fill="black" />
<circle cx="79.347373" cy="180.581869" r="2.000000" fill="black" />
<circle cx="796.514467" cy="532.332034" r="2.000000" fill="black" />
<circle cx="808.861700" cy="315.049313" r="2.000000" fill="black" />
<circle cx="971.634266" cy="671.916514" r="2.000000" fill="black" />
<circle cx="93.505143" cy="812.164274" r="2.000000" fill="black" />
<circle cx="325.209146" cy="578.652991" r="2.000000" fill="black" />
<circle cx="620.779943" cy="33.259295" r="2.000000" fill="black" />
<circle cx="652.390787" cy="91.144402" r="2.000000" fill="black" />
<circle cx="440.028298" cy="182.468340" r="2.000000" fill="black" />
<circle cx="406.178535" cy="151.004388" r="2.000000" fill="black" />
<circle cx="888.804952" cy="294.487637" r="2.000000" fill="black" />
<circle cx="990.267094" cy="715.615807" r="2.000000" fill="black" />
<circle cx="182.091983" cy="506.313111" r="2.000000" fill="black" />
<circle cx="35.663047" cy="488.100132" r="2.000000" fill="black" />
<circle cx="135.714031" cy="352.495622" r="2.000000" fill="black" />
<circle cx="65.238979" cy="215.061404" r="2.000000" fill="black" />
<circle cx="533.077491" cy="861.753446" r="2.000000" fill="black" />
<circle cx="747.393438" cy="341.939190" r="2.000000" fill="black" />
<circle cx="176.802759" cy="719.027703" r="2.000000" fill="black" />
<circle cx="13.855704" cy="270.307901" r="2.000000" fill="black" />
<circle cx="531.191977" cy="339.064851" r="2.000000" fill="black" />
<circle cx="848.960893" cy="151.971920" r="2.000000" fill="black" />
<circle cx="372.324146" cy="501.351679" r="2.000000" fill="black" />
<circle cx="243.116322" cy="812.352444" r="2.000000" fill="black" />
<circle cx="683.820020" cy="649.294856" r="2.000000" fill="black" />
<circle cx="963.356832" cy="572.624972" r="2.000000" fill="black" />
<circle cx="943.782493" cy="953.623925" r="2.000000" fill="black" />
<circle cx="288.240779" cy="125.874476" r="2.000000" fill="black" />
<circle cx="459.937036" cy="323.903827" r="2.000000" fill="black" />
<circle cx="613.974608" cy="595.651068" r="2.000000" fill="black" />
<circle cx="676.399449" cy="679.213587" r="2.000000" fill="black" />
<circle cx="810.712472" cy="209.476939" r="2.000000" fill="black" />
<circle cx="540.967032" cy="558.105910" r="2.000000" fill="black" />
<circle cx="551.416129" cy="717.769791" r="2.000000" fill="black" />
<circle cx="277.133613" cy="565.271834" r="2.000000" fill="black" />
<circle cx="988.077693" cy="808.325590" r="2.000000" fill="black" />
<circle cx="904.336684" cy="837.038585" r="2.000000" fill="black" />
<circle cx="960.297510" cy="276.660830" r="2.000000" fill="black" />
<circle cx="338.390264" cy="203.413831" r="2.000000" fill="black" />
<circle cx="89.013274" cy="22.210284" r="2.000000" fill="black" />
<circle cx="852.708687" cy="52.370105" r="2.000000" fill="black" />
<circle cx="594.835256" cy="796.491180" r="2.000000" fill="black" />
<circle cx="5.994030" cy="883.076035" r="2.000000" fill="black" />
<circle cx="922.365657" cy="465.931067" r="2.000000" fill="black" />
<circle cx="206.979862" cy="536.340264" r="2.000000" fill="black" />
<circle cx="61.582134" cy="883.379310" r="2.000000" fill="black" />
<circle cx="215.553851" cy="872.294606" r="2.000000" fill="black" />
<circle cx="92.856249" cy="756.520884" r="2.000000" fill="black" />
<circle cx="430.400516" cy="644.272378" r="2.000000" fill="black" />
<circle cx="474.290674" cy="707.534128" r="2.000000" fill="black" />
<circle cx="209.544212" cy="462.368366" r="2.000000" fill="black" />
<circle cx="515.859718" cy="113.880896" r="2.000000" fill="black" />
<circle cx="299.406951" cy="476.157227" r="2.000000" fill="black" />
<circle cx="390.541726" cy="637.797215" r="2.000000" fill="black" />
<circle cx="679.571058" cy="479.555000" r="2.000000" fill="black" />
<circle cx="660.007499" cy="532.279745" r="2.000000" fill="black" />
<circle cx="531.925105" cy="254.842755" r="2.000000" fill="black" />
<circle cx="328.770925" cy="537.919136" r="2.000000" fill="black" />
<circle cx="137.918790" cy="251.136581" r="2.000000" fill="black" />
<circle cx="3.850202" cy="344.898652" r="2.000000" fill="black" />
<circle cx="787.476845" cy="65.432336" r="2.000000" fill="black" />
<circle cx="228.277962" cy="3.030696" r="2.000000" fill="black" />
<circle cx="937.726943" cy="321.134211" r="2.000000" fill="black" />
<circle cx="759.551580" cy="368.127458" r="2.000000" fill="black" />
<circle cx="965.406590" cy="233.842253" r="2.000000" fill="black" />
<circle cx="75.661586" cy="174.950801" r="2.000000" fill="black" />
<circle cx="696.210620" cy="591.521303" r="2.000000" fill="black" />
<circle cx="288.831697" cy="995.617571" r="2.000000" fill="black" />
<circle cx="67.678530" cy="679.373422" r="2.000000" fill="black" />
<circle cx="633.414786" cy="747.249588" r="2.000000" fill="black" />
<circle cx="158.928422" cy="293.422285" r="2.000000" fill="black" />
<circle cx="279.529332" cy="690.853527" r="2.000000" fill="black" />
<circle cx="548.265040" cy="608.300257" r="2.000000" fill="black" />
<circle cx="228.772663" cy="686.183830" r="2.000000" fill="black" />
<circle cx="859.436838" cy="232.622865" r="2.000000" fill="black" />
<circle cx="31.082482" cy="646.913683" r="2.000000" fill="black" />
<circle cx="298.055201" cy="259.360444" r="2.000000" fill="black" />
<circle cx="649.944379" cy="235.782144" r="2.000000" fill="black" />
<circle cx="580.494656" cy="409.495959" r="2.000000" fill="black" />
<circle cx="603.909602" cy="545.901245" r="2.000000" fill="black" />
<circle cx="643.338213" cy="679.571188" r="2.000000" fill="black" />
<circle cx="720.852046" cy="339.548832" r="2.000000" fill="black" />
<circle cx="271.092491" cy="9.683743" r="2.000000" fill="black" />
<circle cx="335.166402" cy="338.771021" r="2.000000" fill="black" />
<circle cx="689.057165" cy="968.581188" r="2.000000" fill="black" />
<circle cx="86.020608" cy="847.985587" r="2.000000" fill="black" />
<circle cx="262.003472" cy="365.549940" r="2.000000" fill="black" />
<circle cx="538.839114" cy="810.268512" r="2.000000" fill="black" />
<circle cx="973.850197" cy="767.611777" r="2.000000" fill="black" />
<circle cx="496.452342" cy="833.287035" r="2.000000" fill="black" />
<circle cx="0.234642" cy="527.534824" r="2.000000" fill="black" />
<circle cx="480.200717" cy="298.289843" r="2.000000" fill="black" />
<circle cx="786.895268" cy="130.145096" r="2.000000" fill="black" />
<circle cx="534.071987" cy="367.389924" r="2.000000" fill="black" />
<circle cx="539.641056" cy="137.981589" r="2.000000" fill="black" />
<circle cx="913.291169" cy="182.979268" r="2.000000" fill="black" />
<circle cx="817.552776" cy="634.143215" r="2.000000" fill="black" />
<circle cx="522.528100" cy="88.645267" r="2.000000" fill="black" />
<circle cx="643.826958" cy="857.694502" r="2.000000" fill="black" />
<circle cx="427.416288" cy="332.884122" r="2.000000" fill="black" />
<circle cx="826.275689" cy="513.436897" r="2.000000" fill="black" />
<circle cx="180.869709" cy="88.279161" r="2.000000" fill="black" />
<circle cx="878.986837" cy="719.708823" r="2.000000" fill="black" />
<circle cx="898.547673" cy="852.837034" r="2.000000" fill="black" />
<circle cx="487.320599" cy="395.000015" r="2.000000" fill="black" />
<circle cx="686.124069" cy="487.555241" r="2.000000" fill="black" />
<circle cx="922.534839" cy="166.324786" r="2.000000" fill="black" />
<circle cx="785.845084" cy="709.430107" r="2.000000" fill="black" />
<circle cx="296.469882" cy="319.917071" r="2.000000" fill="black" />
<circle cx="76.820030" cy="836.110938" r="2.000000" fill="black" />
<circle cx="457.898659" cy="990.111199" r="2.000000" fill="black" />
<circle cx="19.090205" cy="275.451436" r="2.000000" fill="black" />
<circle cx="624.254414" cy="541.618305" r="2.000000" fill="black" />
<circle cx="364.096703" cy="268.081371" r="2.000000" fill="black" />
<circle cx="399.312806" cy="791.512992" r="2.000000" fill="black" />
<circle cx="600.965493" cy="225.588495" r="2.000000" fill="black" />
<circle cx="304.949888" cy="781.835202" r="2.000000" fill="black" />
<circle cx="313.867656" cy="183.936725" r="2.000000" fill="black" />
<circle cx="501.544025" cy="212.415329" r="2.000000" fill="black" />
<circle cx="36.773759" cy="988.864623" r="2.000000" fill="black" />
<circle cx="607.415344" cy="722.897828" r="2.000000" fill="black" />
<circle cx="476.419864" cy="529.950182" r="2.000000" fill="black" />
<circle cx="889.222613" cy="262.264948" r="2.000000" fill="black" />
<circle cx="239.380289" cy="185.692495" r="2.000000" fill="black" />
<circle cx="582.182018" cy="316.200319" r="2.000000" fill="black" />
<circle cx="21.803433" cy="40.080677" r="2.000000" fill="black" />
<circle cx="306.311518" cy="40.893638" r="2.000000" fill="black" />
<circle cx="315.532113" cy="930.565932" r="2.000000" fill="black" />
<circle cx="582.511942" cy="679.628816" r="2.000000" fill="black" />
<circle cx="198.647303" cy="981.824748" r="2.000000" fill="black" />
<circle cx="471.141807" cy="799.612796" r="2.000000" fill="black" />
<circle cx="207.413243" cy="776.091696" r="2.000000" fill="black" />
<circle cx="581.447998" cy="521.280899" r="2.000000" fill="black" />
<circle cx="960.028421" cy="82.992022" r="2.000000" fill="black" />
<circle cx="733.696228" cy="996.802180" r="2.000000" fill="black" />
<circle cx="71.856645" cy="341.111572" r="2.000000" fill="black" />
<circle cx="719.700008" cy="548.276509" r="2.000000" fill="black" />
<circle cx="871.061754" cy="608.922621" r="2.000000" fill="black" />
<circle cx="810.541457" cy="110.442042" r="2.000000" fill="black" />
<circle cx="794.615116" cy="392.723475" r="2.000000" fill="black" />
<circle cx="426.642362" cy="816.418549" r="2.000000" fill="black" />
<circle cx="432.804152" cy="732.953880" r="2.000000" fill="black" />
<circle cx="857.312187" cy="748.336266" r="2.000000" fill="black" />
<circle cx="663.519812" cy="439.824129" r="2.000000" fill="black" />
<circle cx="427.965081" cy="862.167115" r="2.000000" fill="black" />
<circle cx="421.648877" cy="899.106889" r="2.000000" fill="black" />
<circle cx="661.779911" cy="629.062120" r="2.000000" fill="black" />
<circle cx="675.198585" cy="243.227909" r="2.000000" fill="black" />
<circle cx="150.343019" cy="635.227005" r="2.000000" fill="black" />
<circle cx="326.219930" cy="884.039247" r="2.000000" fill="black" />
<circle cx="632.029185" cy="398.076576" r="2.000000" fill="black" />
<circle cx="225.150818" cy="351.729192" r="2.000000" fill="black" />
<circle cx="946.353085" cy="96.212572" r="2.000000" fill="black" />
<circle cx="960.651814" cy="756.894542" r="2.000000" fill="black" />
<circle cx="206.654614" cy="755.266930" r="2.000000" fill="black" />
<circle cx="149.618016" cy="633.296977" r="2.000000" fill="black" />
<circle cx="571.685479" cy="582.422169" r="2.000000" fill="black" />
<circle cx="366.250856" cy="428.997665" r="2.000000" fill="black" />
<circle cx="330.758434" cy="29.770668" r="2.000000" fill="black" />
<circle cx="868.821795" cy="758.723515" r="2.000000" fill="black" />
<circle cx="891.937783" cy="290.470672" r="2.000000" fill="black" />
<circle cx="657.830404" cy="553.717694" r="2.000000" fill="black" />
<circle cx="919.532792" cy="333.028989" r="2.000000" fill="black" />
<circle cx="796.945602" cy="69.875810" r="2.000000" fill="black" />
<circle cx="968.255994" cy="123.165532" r="2.000000" fill="black" />
<circle cx="953.915057" cy="600.285179" r="2.000000" fill="black" />
<circle cx="521.242108" cy="179.065875" r="2.000000" fill="black" />
<circle cx="952.014372" cy="467.595193" r="2.000000" fill="black" />
<circle cx="275.278447" cy="912.666185" r="2.000000" fill="black" />
<circle cx="224.489735" cy="481.933062" r="2.000000" fill="black" />
<circle cx="667.933115" cy="374.107751" r="2.000000" fill="black" />
<circle cx="115.230038" cy="239.618593" r="2.000000" fill="black" />
<circle cx="956.529920" cy="481.480894" r="2.000000" fill="black" />
<circle cx="668.616259" cy="287.288353" r="2.000000" fill="black" />
<circle cx="511.251563" cy="537.438053" r="2.000000" fill="black" />
<circle cx="46.011869" cy="403.189345" r="2.000000" fill="black" />
<circle cx="827.908724" cy="703.842273" r="2.000000" fill="black" />
<circle cx="956.907039" cy="747.441516" r="2.000000" fill="black" />
<circle cx="36.871262" cy="753.852640" r="2.000000" fill="black" />
<circle cx="817.317326" cy="5.127256" r="2.000000" fill="black" />
<circle cx="877.018173" cy="771.232383" r="2.000000" fill="black" />
<circle cx="605.412436" cy="398.260281" r="2.000000" fill="black" />
<circle cx="950.298258" cy="557.426807" r="2.000000" fill="black" />
<circle cx="865.855474" cy="225.576704" r="2.000000" fill="black" />
<circle cx="470.092993" cy="90.345209" r="2.000000" fill="black" />
<circle cx="707.509766" cy="138.026107" r="2.000000" fill="black" />
<circle cx="464.452960" cy="822.739804" r="2.000000" fill="black" />
<circle cx="377.644700" cy="420.982880" r="2.000000" fill="black" />
<circle cx="304.220698" cy="46.260959" r="2.000000" fill="black" />
<circle cx="708.271234" cy="815.472260" r="2.000000" fill="black" />
<circle cx="583.699012" cy="754.283103" r="2.000000" fill="black" />
<circle cx="218.661605" cy="411.607736" r="2.000000" fill="black" />
<circle cx="458.125375" cy="175.568644" r="2.000000" fill="black" />
<circle cx="159.049251" cy="494.996638" r="2.000000" fill="black" />
<circle cx="929.421284" cy="976.366577" r="2.000000" fill="black" />
<circle cx="500.123894" cy="806.439456" r="2.000000" fill="black" />
<circle cx="747.598959" cy="105.536329" r="2.000000" fill="black" />
<circle cx="204.699736" cy="697.897217" r="2.000000" fill="black" />
<circle cx="662.963137" cy="70.555210" r="2.000000" fill="black" />
<circle cx="923.473922" cy="133.056129" r="2.000000" fill="black" />
<circle cx="160.900419" cy="630.983687" r="2.000000" fill="black" />
<circle cx="271.082236" cy="625.353379" r="2.000000" fill="black" />
<circle cx="453.723491" cy="648.726936" r="2.000000" fill="black" />
<circle cx="46.336259" cy="757.944189" r="2.000000" fill="black" />
<circle cx="694.987894" cy="754.607492" r="2.000000" fill="black" />
<circle cx="573.416449" cy="278.686906" r="2.000000" fill="black" />
<circle cx="508.890595" cy="792.078054" r="2.000000" fill="black" />
<circle cx="690.294642" cy="967.015970" r="2.000000" fill="black" />
<circle cx="967.646698" cy="849.343893" r="2.000000" fill="black" />
<circle cx="462.012607" cy="897.067981" r="2.000000" fill="black" />
<circle cx="825.710470" cy="962.136501" r="2.000000" fill="black" />
<circle cx="703.507437" cy="573.309429" r="2.000000" fill="black" />
<circle cx="67.672831" cy="908.207173" r="2.000000" fill="black" />
<circle cx="271.206646" cy="730.635967" r="2.000000" fill="black" />
<circle cx="978.762384" cy="194.680567" r="2.000000" fill="black" />
<circle cx="863.692096" cy="139.662802" r="2.000000" fill="black" />
<circle cx="825.664254" cy="134.774332" r="2.000000" fill="black" />
<circle cx="765.016181" cy="279.387745" r="2.000000" fill="black" />
<circle cx="783.501268" cy="811.352440" r="2.000000" fill="black" />
<circle cx="37.331933" cy="478.489162" r="2.000000" fill="black" />
<circle cx="565.959932" cy="610.748382" r="2.000000" fill="black" />
<circle cx="757.176068" cy="74.850526" r="2.000000" fill="black" />
<circle cx="402.826436" cy="447.470709" r="2.000000" fill="black" />
<circle cx="41.866496" cy="370.473133" r="2.000000" fill="black" />
<circle cx="296.814602" cy="503.879104" r="2.000000" fill="black" />
<circle cx="267.541114" cy="122.525072" r="2.000000" fill="black" />
<circle cx="466.015605" cy="971.048551" r="2.000000" fill="black" />
<circle cx="695.834501" cy="533.688435" r="2.000000" fill="black" />
<circle cx="879.255724" cy="967.041147" r="2.000000" fill="black" />
<circle cx="264.324402" cy="858.018107" r="2.000000" fill="black" />
<circle cx="161.721714" cy="128.016498" r="2.000000" fill="black" />
<circle cx="997.680909" cy="987.385969" r="2.000000" fill="black" />
<circle cx="262.790830" cy="762.697090" r="2.000000" fill="black" />
<circle cx="266.773713" cy="46.292097" r="2.000000" fill="black" />
<circle cx="574.049529" cy="304.105647" r="2.000000" fill="black" />
<circle cx="524.781259" cy="140.009461" r="2.000000" fill="black" />
<circle cx="914.854029" cy="281.957327" r="2.000000" fill="black" />
<circle cx="214.859987" cy="317.680464" r="2.000000" fill="black" />
<circle cx="729.428036" cy="256.726483" r="2.000000" fill="black" />
<circle cx="688.153598" cy="26.242637" r="2.000000" fill="black" />
<circle cx="760.605587" cy="955.694712" r="2.000000" fill="black" />
<circle cx="148.767709" cy="226.621191" r="2.000000" fill="black" />
<circle cx="926.743262" cy="844.602210" r="2.000000" fill="black" />
<circle cx="760.309627" cy="805.998986" r="2.000000" fill="black" />
<circle cx="811.643357" cy="24.634028" r="2.000000" fill="black" />
<circle cx="664.017093" cy="973.365071" r="2.000000" fill="black" />
<circle cx="152.650527" cy="661.698002" r="2.000000" fill="black" />
<circle cx="960.751039" cy="415.441357" r="2.000000" fill="black" />
<circle cx="424.395091" cy="227.524752" r="2.000000" fill="black" />
<circle cx="461.733454" cy="998.444621" r="2.000000" fill="black" />
<circle cx="531.630399" cy="986.514713" r="2.000000" fill="black" />
<circle cx="138.454082" cy="446.484427" r="2.000000" fill="black" />
<circle cx="268.472039" cy="353.314069" r="2.000000" fill="black" />
<circle cx="764.164892" cy="997.900075" r="2.000000" fill="black" />
<circle cx="610.040553" cy="452.318489" r="2.000000" fill="black" />
<circle cx="24.142712" cy="370.646139" r="2.000000" fill="black" />
<circle cx="408.013201" cy="172.910421" r="2.000000" fill="black" />
<circle cx="597.267330" cy="334.756463" r="2.000000" fill="black" />
<circle cx="17.512631" cy="357.576957" r="2.000000" fill="black" />
<circle cx="140.755449" cy="829.155988" r="2.000000" fill="black" />
<circle cx="382.210985" cy="804.772542" r="2.000000" fill="black" />
<circle cx="802.521059" cy="534.861512" r="2.000000" fill="black" />
<circle cx="466.470543" cy="763.272099" r="2.000000" fill="black" />
<circle cx="950.302869" cy="890.865634" r="2.000000" fill="black" />
<circle cx="990.796851" cy="412.036323" r="2.000000" fill="black" />
<circle cx="889.310255" cy="522.427249" r="2.000000" fill="black" />
<circle cx="398.551035" cy="27.764336" r="2.000000" fill="black" />
<circle cx="968.911677" cy="667.023075" r="2.000000" fill="black" />
<circle cx="381.078405" cy="733.076568" r="2.000000" fill="black" />
<circle cx="664.923150" cy="991.118958" r="2.000000" fill="black" />
<circle cx="185.395057" cy="689.065862" r="2.000000" fill="black" />
<circle cx="361.765097" cy="593.408258" r="2.000000" fill="black" />
<circle cx="861.976283" cy="959.032428" r="2.000000" fill="black" />
<circle cx="928.164721" cy="879.488914" r="2.000000" fill="black" />
<circle cx="316.609384" cy="68.920169" r="2.000000" fill="black" />
<circle cx="708.644902" cy="698.820370" r="2.000000" fill="black" />
<circle cx="873.692711" cy="511.165961" r="2.000000" fill="black" />
<circle cx="233.681881" cy="340.163253" r="2.000000" fill="black" />
<circle cx="274.438060" cy="183.984750" r="2.000000" fill="black" />
<circle cx="231.028888" cy="265.234910" r="2.000000" fill="black" />
<circle cx="596.021073" cy="120.339142" r="2.000000" fill="black" />
<circle cx="787.662160" cy="994.572108" r="2.000000" fill="black" />
<circle cx="148.103478" cy="756.573836" r="2.000000" fill="black" />
<circle cx="661.595183" cy="529.181883" r="2.000000" fill="black" />
<circle cx="489.650404" cy="326.518332" r="2.000000" fill="black" />
<circle cx="520.300841" cy="675.045461" r="2.000000" fill="black" />
<circle cx="15.584194" cy="882.065938" r="2.000000" fill="black" />
<circle cx="268.453718" cy="877.560477" r="2.000000" fill="black" />
<circle cx="841.098366" cy="196.618439" r="2.000000" fill="black" />
<circle cx="757.049391" cy="157.707749" r="2.000000" fill="black" />
<circle cx="265.538608" cy="465.694293" r="2.000000" fill="black" />
<circle cx="856.528119" cy="139.231319" r="2.000000" fill="black" />
<circle cx="976.860255" cy="90.210000" r="2.000000" fill="black" />
<circle cx="479.394573" cy="251.298314" r="2.000000" fill="black" />
<circle cx="274.194750" cy="710.423460" r="2.000000" fill="black" />
<circle cx="516.533224" cy="870.215823" r="2.000000" fill="black" />
<circle cx="830.762602" cy="304.195383" r="2.000000" fill="black" />
<circle cx="864.787931" cy="978.866080" r="2.000000" fill="black" />
<circle cx="60.769219" cy="526.383113" r="2.000000" fill="black" />
<circle cx="508.047963" cy="550.419622" r="2.000000" fill="black" />
<circle cx="852.901446" cy="28.348804" r="2.000000" fill="black" />
<circle cx="225.465083" cy="868.485640" r="2.000000" fill="black" />
<circle cx="910.414743" cy="493.918801" r="2.000000" fill="black" />
<circle cx="746.046117" cy="751.513108" r="2.000000" fill="black" />
<circle cx="690.537240" cy="503.095508" r="2.000000" fill="black" />
<circle cx="909.220858" cy="956.075849" r="2.000000" fill="black" />
<circle cx="968.789801" cy="765.748976" r="2.000000" fill="black" />
<circle cx="95.307167" cy="945.650056" r="2.000000" fill="black" />
<circle cx="855.958976" cy="574.701740" r="2.000000" fill="black" />
<circle cx="196.948369" cy="130.153726" r="2.000000" fill="black" />
<circle cx="285.125199" cy="713.481593" r="2.000000" fill="black" />
<circle cx="0.369548" cy="115.887801" r="2.000000" fill="black" />
<circle cx="17.676975" cy="865.157479" r="2.000000" fill="black" />
<circle cx="94.753881" cy="78.446194" r="2.000000" fill="black" />
<circle cx="391.540592" cy="602.801844" r="2.000000" fill="black" />
<circle cx="628.865816" cy="244.442037" r="2.000000" fill="black" />
<circle cx="631.150649" cy="854.330899" r="2.000000" fill="black" />
<circle cx="112.927677" cy="541.565391" r="2.000000" fill="black" />
<circle cx="348.249700" cy="858.973794" r="2.000000" fill="black" />
<circle cx="293.078499" cy="38.786940" r="2.000000" fill="black" />
<circle cx="362.069301" cy="202.299356" r="2.000000" fill="black" />
<circle cx="994.862789" cy="330.859102" r="2.000000" fill="black" />
<circle cx="968.048333" cy="90.169956" r="2.000000" fill="black" />
<circle cx="276.509157" cy="824.007308" r="2.000000" fill="black" />
<circle cx="664.871695" cy="473.457526" r="2.000000" fill="black" />
<circle cx="954.161035" cy="949.996895" r="2.000000" fill="black" />
<circle cx="186.939119" cy="954.530583" r="2.000000" fill="black" />
<circle cx="65.884695" cy="204.616094" r="2.000000" fill="black" />
<circle cx="819.688062" cy="160.638576" r="2.000000" fill="black" />
<circle cx="283.062288" cy="211.228654" r="2.000000" fill="black" />
<circle cx="763.440420" cy="911.928104" r="2.000000" fill="black" />
<circle cx="455.670692" cy="394.591069" r="2.000000" fill="black" />
<circle cx="766.259002" cy="568.598369" r="2.000000" fill="black" />
<circle cx="936.156460" cy="114.508702" r="2.000000" fill="black" />
<circle cx="427.572163" cy="229.234958" r="2.000000" fill="black" />
<circle cx="153.295642" cy="789.641464" r="2.000000" fill="black" />
<circle cx="431.534315" cy="148.158431" r="2.000000" fill="black" />
<circle cx="120.500566" cy="399.582647" r="2.000000" fill="black" />
<circle cx="238.328386" cy="397.009723" r="2.000000" fill="black" />
<circle cx="223.589955" cy="903.200082" r="2.000000" fill="black" />
<circle cx="870.467249" cy="177.750989" r="2.000000" fill="black" />
<circle cx="853.196976" cy="57.406367" r="2.000000" fill="black" />
<circle cx="132.281573" cy="919.081671" r="2.000000" fill="black" />
<circle cx="262.022461" cy="951.969635" r="2.000000" fill="black" />
<circle cx="79.720246" cy="545.084749" r="2.000000" fill="black" />
<circle cx="163.198289" cy="843.160666" r="2.000000" fill="black" />
<circle cx="457.012852" cy="618.868980" r="2.000000" fill="black" />
<circle cx="237.751735" cy="223.271854" r="2.000000" fill="black" />
<circle cx="187.467349" cy="173.908194" r="2.000000" fill="black" />
<circle cx="337.780557" cy="615.039511" r="2.000000" fill="black" />
<circle cx="403.143152" cy="491.076199" r="2.000000" fill="black" />
<circle cx="404.680975" cy="834.677467" r="2.000000" fill="black" />
<circle cx="639.234630" cy="525.181541" r="2.000000" fill="black" />
<circle cx="234.260114" cy="877.563016" r="2.000000" fill="black" />
<circle cx="922.191264" cy="457.850069" r="2.000000" fill="black" />
<circle cx="780.763097" cy="792.658512" r="2.000000" fill="black" />
<circle cx="635.601058" cy="633.960072" r="2.000000" fill="black" />
<circle cx="850.064880" cy="767.882631" r="2.000000" fill="black" />
<circle cx="553.041742" cy="112.087341" r="2.000000" fill="black" />
<circle cx="719.852266" cy="632.761989" r="2.000000" fill="black" />
<circle cx="657.172089" cy="883.050554" r="2.000000" fill="black" />
<circle cx="475.922655" cy="114.184941" r="2.000000" fill="black" />
<circle cx="501.919534" cy="713.674390" r="2.000000" fill="black" />
<circle cx="337.456796" cy="689.386883" r="2.000000" fill="black" />
<circle cx="887.582584" cy="675.237353" r="2.000000" fill="black" />
<circle cx="304.426394" cy="290.725736" r="2.000000" fill="black" />
<circle cx="166.313551" cy="709.107369" r="2.000000" fill="black" />
<circle cx="125.403203" cy="805.548181" r="2.000000" fill="black" />
<circle cx="234.288909" cy="359.663317" r="2.000000" fill="black" />
<circle cx="683.111197" cy="156.480173" r="2.000000" fill="black" />
<circle cx="817.513386" cy="463.874293" r="2.000000" fill="black" />
<circle cx="949.138685" cy="453.114444" r="2.000000" fill="black" />
<circle cx="97.834365" cy="799.203565" r="2.000000" fill="black" />
<circle cx="220.997075" cy="650.876107" r="2.000000" fill="black" />
<circle cx="911.290905" cy="940.849340" r="2.000000" fill="black" />
<circle cx="283.638096" cy="568.462994" r="2.000000" fill="black" />
<circle cx="823.899894" cy="759.560752" r="2.000000" fill="black" />
<circle cx="682.647936" cy="325.819428" r="2.000000" fill="black" />
<circle cx="473.235141" cy="20.104731" r="2.000000" fill="black" />
<circle cx="15.206311" cy="360.817725" r="2.000000" fill="black" />
<circle cx="695.342084" cy="319.632705" r="2.000000" fill="black" />
<circle cx="651.543461" cy="861.655636" r="2.000000" fill="black" />
<circle cx="28.740074" cy="776.946664" r="2.000000" fill="black" />
<circle cx="667.203816" cy="263.028983" r="2.000000" fill="black" />
<circle cx="136.609981" cy="350.315013" r="2.000000" fill="black" />
<circle cx="419.509156" cy="954.123367" r="2.000000" fill="black" />
<circle cx="814.189306" cy="368.647841" r="2.000000" fill="black" />
<circle cx="407.237810" cy="912.023671" r="2.000000" fill="black" />
<circle cx="167.851405" cy="628.234885" r="2.000000" fill="black" />
<circle cx="562.899778" cy="79.142310" r="2.000000" fill="black" />
<circle cx="569.084225" cy="846.537874" r="2.000000" fill="black" />
<circle cx="647.605304" cy="392.984120" r="2.000000" fill="black" />
<circle cx="606.098626" cy="330.253240" r="2.000000" fill="black" />
<circle cx="718.803548" cy="79.333766" r="2.000000" fill="black" />
<circle cx="350.357971" cy="734.009859" r="2.000000" fill="black" />
<circle cx="440.151491" cy="45.700055" r="2.000000" fill="black" />
<circle cx="53.642564" cy="91.694952" r="2.000000" fill="black" />
<circle cx="907.355691" cy="82.382638" r="2.000000" fill="black" />
<circle cx="868.641617" cy="574.559507" r="2.000000" fill="black" />
<circle cx="345.411621" cy="5.251597" r="2.000000" fill="black" />
<circle cx="924.874519" cy="764.920777" r="2.000000" fill="black" />
<circle cx="959.374964" cy="739.063825" r="2.000000" fill="black" />
<circle cx="133.568617" cy="366.612774" r="2.000000" fill="black" />
<circle cx="651.087495" cy="301.420022" r="2.000000" fill="black" />
<circle cx="994.847659" cy="213.987273" r="2.000000" fill="black" />
<circle cx="380.562332" cy="563.931885" r="2.000000" fill="black" />
<circle cx="60.525147" cy="28.167636" r="2.000000" fill="black" />
<circle cx="956.916004" cy="666.623772" r="2.000000" fill="black" />
<circle cx="358.420876" cy="675.719553" r="2.000000" fill="black" />
<circle cx="745.957539" cy="708.778847" r="2.000000" fill="black" />
<circle cx="409.729412" cy="186.109030" r="2.000000" fill="black" />
<circle cx="754.478902" cy="463.371976" r="2.000000" fill="black" />
<circle cx="277.803982" cy="661.834593" r="2.000000" fill="black" />
<circle cx="545.754614" cy="146.445599" r="2.000000" fill="black" />
<circle cx="236.394099" cy="891.166235" r="2.000000" fill="black" />
<circle cx="151.697196" cy="161.268618" r="2.000000" fill="black" />
<circle cx="656.087011" cy="111.072159" r="2.000000" fill="black" />
<circle cx="900.332443" cy="789.655629" r="2.000000" fill="black" />
<circle cx="477.684933" cy="551.419938" r="2.000000" fill="black" />
<circle cx="91.075651" cy="472.532592" r="2.000000" fill="black" />
<circle cx="765.407211" cy="471.637983" r="2.000000" fill="black" />
<circle cx="36.464477" cy="825.932358" r="2.000000" fill="black" />
<circle cx="499.805620" cy="993.380481" r="2.000000" fill="black" />
<circle cx="492.556130" cy="858.226496" r="2.000000" fill="black" />
<circle cx="669.100033" cy="238.513669" r="2.000000" fill="black" />
<circle cx="567.005343" cy="78.829444" r="2.000000" fill="black" />
<circle cx="424.622699" cy="321.484245" r="2.000000" fill="black" />
<circle cx="542.201420" cy="702.426681" r="2.000000" fill="black" />
<circle cx="983.318838" cy="87.956033" r="2.000000" fill="black" />
<circle cx="848.872280" cy="219.712937" r="2.000000" fill="black" />
<circle cx="979.122268" cy="0.569475" r="2.000000" fill="black" />
<circle cx="380.981555" cy="635.209279" r="2.000000" fill="black" />
<circle cx="111.641634" cy="281.313998" r="2.000000" fill="black" />
<circle cx="424.864908" cy="589.326567" r="2.000000" fill="black" />
<circle cx="832.733936" cy="515.940559" r="2.000000" fill="black" />
<circle cx="61.859159" cy="598.141147" r="2.000000" fill="black" />
<circle cx="987.578542" cy="98.323635" r="2.000000" fill="black" />
<circle cx="424.073504" cy="487.384162" r="2.000000" fill="black" />
<circle cx="91.704116" cy="916.629634" r="2.000000" fill="black" />
<circle cx="345.610657" cy="760.804149" r="2.000000" fill="black" />
<circle cx="155.143303" cy="912.616000" r="2.000000" fill="black" />
<circle cx="839.633594" cy="579.766002" r="2.000000" fill="black" />
<circle cx="234.100245" cy="381.835013" r="2.000000" fill="black" />
<circle cx="282.192683" cy="217.419083" r="2.000000" fill="black" />
<circle cx="469.791047" cy="131.064962" r="2.000000" fill="black" />
<circle cx="437.132020" cy="448.913315" r="2.000000" fill="black" />
<circle cx="131.634437" cy="818.113575" r="2.000000" fill="black" />
<circle cx="84.122594" cy="243.276070" r="2.000000" fill="black" />
<circle cx="99.427573" cy="508.987502" r="2.000000" fill="black" />
<circle cx="832.602638" cy="932.161509" r="2.000000" fill="black" />
<circle cx="24.928061" cy="894.461797" r="2.000000" fill="black" />
<circle cx="530.302655" cy="12.506603" r="2.000000" fill="black" />
<circle cx="992.785432" cy="954.376159" r="2.000000" fill="black" />
<circle cx="499.890764" cy="84.489548" r="2.000000" fill="black" />
<circle cx="871.005794" cy="845.501421" r="2.000000" fill="black" />
<circle cx="845.293698" cy="26.149096" r="2.000000" fill="black" />
<circle cx="758.117421" cy="684.927291" r="2.000000" fill="black" />
<circle cx="605.915098" cy="992.217666" r="2.000000" fill="black" />
<circle cx="66.762304" cy="888.107780" r="2.000000" fill="black" />
<circle cx="209.636749" cy="536.553351" r="2.000000" fill="black" />
<circle cx="19.172742" cy="646.768769" r="2.000000" fill="black" />
<circle cx="985.466666" cy="150.807178" r="2.000000" fill="black" />
<circle cx="464.882344" cy="69.589259" r="2.000000" fill="black" />
<circle cx="394.083249" cy="564.309917" r="2.000000" fill="black" />
<circle cx="578.576761" cy="226.685886" r="2.000000" fill="black" />
<circle cx="496.471425" cy="603.504822" r="2.000000" fill="black" />
<circle cx="121.147683" cy="26.774080" r="2.000000" fill="black" />
<circle cx="616.011425" cy="113.933115" r="2.000000" fill="black" />
<circle cx="981.150239" cy="115.902189" r="2.000000" fill="black" />
<circle cx="198.422663" cy="852.156032" r="2.000000" fill="black" />
<circle cx="961.403611" cy="43.716361" r="2.000000" fill="black" />
<circle cx="878.305128" cy="719.521032" r="2.000000" fill="black" />
<circle cx="728.643652" cy="484.220226" r="2.000000" fill="black" />
<circle cx="711.738698" cy="795.405956" r="2.000000" fill="black" />
<circle cx="372.328005" cy="921.375446" r="2.000000" fill="black" />
<circle cx="331.959306" cy="391.500747" r="2.000000" fill="black" />
<circle cx="568.144215" cy="317.425971" r="2.000000" fill="black" />
<circle cx="542.307925" cy="33.026558" r="2.000000" fill="black" />
<circle cx="387.015230" cy="936.391174" r="2.000000" fill="black" />
<circle cx="597.336475" cy="965.591992" r="2.000000" fill="black" />
<circle cx="163.077060" cy="93.807899" r="2.000000" fill="black" />
<circle cx="569.096813" cy="284.224743" r="2.000000" fill="black" />
<circle cx="120.581979" cy="185.108238" r="2.000000" fill="black" />
<circle cx="398.157858" cy="101.732219" r="2.000000" fill="black" />
<circle cx="301.010427" cy="596.580521" r="2.000000" fill="black" />
<circle cx="953.888251" cy="262.414037" r="2.000000" fill="black" />
<circle cx="640.296882" cy="832.193379" r="2.000000" fill="black" />
<circle cx="981.935068" cy="368.940534" r="2.000000" fill="black" />
<circle cx="316.413604" cy="693.673766" r="2.000000" fill="black" />
<circle cx="164.346489" cy="688.741610" r="2.000000" fill="black" />
<circle cx="615.049212" cy="496.305796" r="2.000000" fill="black" />
<circle cx="80.242357" cy="183.193426" r="2.000000" fill="black" />
<circle cx="813.731767" cy="622.550282" r="2.000000" fill="black" />
<circle cx="216.219984" cy="200.746997" r="2.000000" fill="black" />
<circle cx="558.941456" cy="813.556459" r="2.000000" fill="black" />
<circle cx="166.338988" cy="722.018516" r="2.000000" fill="black" />
<circle cx="907.364359" cy="735.435801" r="2.000000" fill="black" />
<circle cx="6.243259" cy="27.946338" r="2.000000" fill="black" />
<circle cx="920.544039" cy="404.401117" r="2.000000" fill="black" />
<circle cx="129.678557" cy="221.554466" r="2.000000" fill="black" />
<circle cx="0.981639" cy="83.566807" r="2.000000" fill="black" />
<circle cx="483.968503" cy="641.278521" r="2.000000" fill="black" />
<circle cx="915.760186" cy="465.903572" r="2.000000" fill="black" />
<circle cx="10.219055" cy="232.173791" r="2.000000" fill="black" />
<circle cx="159.577337" cy="174.565544" r="2.000000" fill="black" />
<circle cx="920.915401" cy="774.626549" r="2.000000" fill="black" />
<circle cx="670.871340" cy="1.157757" r="2.000000" fill="black" />
<circle cx="957.819975" cy="484.603106" r="2.000000" fill="black" />
<circle cx="623.708040" cy="174.039959" r="2.000000" fill="black" />
<circle cx="685.350103" cy="182.649496" r="2.000000" fill="black" />
<circle cx="987.596418" cy="851.689091" r="2.000000" fill="black" />
<circle cx="904.668012" cy="894.960776" r="2.000000" fill="black" />
<circle cx="587.124892" cy="910.911271" r="2.000000" fill="black" />
<circle cx="922.907114" cy="507.668932" r="2.000000" fill="black" />
<circle cx="315.312388" cy="52.585671" r="2.000000" fill="black" />
<circle cx="729.223398" cy="316.294027" r="2.000000" fill="black" />
<circle cx="136.152478" cy="213.191901" r="2.000000" fill="black" />
<circle cx="957.572548" cy="51.912664" r="2.000000" fill="black" />
<circle cx="679.095472" cy="967.791603" r="2.000000" fill="black" />
<circle cx="284.086455" cy="838.672809" r="2.000000" fill="black" />
<circle cx="142.357147" cy="205.001856" r="2.000000" fill="black" />
<circle cx="613.299358" cy="813.228486" r="2.000000" fill="black" />
<circle cx="206.159613" cy="571.119332" r="2.000000" fill="black" />
<circle cx="297.831592" cy="829.867653" r="2.000000" fill="black" />
<circle cx="745.159291" cy="983.181695" r="2.000000" fill="black" />
<circle cx="12.517149" cy="732.755708" r="2.000000" fill="black" />
<circle cx="834.870786" cy="917.185161" r="2.000000" fill="black" />
<circle cx="627.716484" cy="421.995679" r="2.000000" fill="black" />
<circle cx="828.096432" cy="550.623598" r="2.000000" fill="black" />
<circle cx="929.664610" cy="143.408820" r="2.000000" fill="black" />
<circle cx="603.209269" cy="658.888008" r="2.000000" fill="black" />
<circle cx="459.702847" cy="739.361747" r="2.000000" fill="black" />
<circle cx="872.079908" cy="417.275395" r="2.000000" fill="black" />
<circle cx="791.274412" cy="551.175380" r="2.000000" fill="black" />
<circle cx="385.066998" cy="75.360866" r="2.000000" fill="black" />
<circle cx="389.848189" cy="527.424145" r="2.000000" fill="black" />
<circle cx="280.362722" cy="3.147546" r="2.000000" fill="black" />
<circle cx="340.652631" cy="486.522336" r="2.000000" fill="black" />
<circle cx="574.266878" cy="638.484224" r="2.000000" fill="black" />
<circle cx="316.389989" cy="319.426168" r="2.000000" fill="black" />
<circle cx="621.665919" cy="328.907137" r="2.000000" fill="black" />
<circle cx="52.181876" cy="456.536705" r="2.000000" fill="black" />
<circle cx="246.092298" cy="679.898361" r="2.000000" fill="black" />
<circle cx="878.532384" cy="74.188730" r="2.000000" fill="black" />
<circle cx="230.521958" cy="808.196993" r="2.000000" fill="black" />
<circle cx="217.597550" cy="833.731227" r="2.000000" fill="black" />
<circle cx="467.085001" cy="677.300398" r="2.000000" fill="black" />
<circle cx="573.092975" cy="339.164909" r="2.000000" fill="black" />
<circle cx="94.575793" cy="364.367386" r="2.000000" fill="black" />
<circle cx="890.340290" cy="479.642791" r="2.000000" fill="black" />
<circle cx="439.728252" cy="280.188478" r="2.000000" fill="black" />
<circle cx="7.066936" cy="720.090974" r="2.000000" fill="black" />
<circle cx="283.336024" cy="347.719567" r="2.000000" fill="black" />
<circle cx="206.613310" cy="857.602903" r="2.000000" fill="black" />
<circle cx="986.203791" cy="523.003299" r="2.000000" fill="black" />
<circle cx="177.029071" cy="607.869709" r="2.000000" fill="black" />
<circle cx="851.910436" cy="229.210947" r="2.000000" fill="black" />
<circle cx="64.406414" cy="98.002734" r="2.000000" fill="black" />
<circle cx="909.109308" cy="942.938798" r="2.000000" fill="black" />
<circle cx="172.191464" cy="139.631266" r="2.000000" fill="black" />
<circle cx="751.135791" cy="389.789015" r="2.000000" fill="black" />
<circle cx="973.362494" cy="218.220791" r="2.000000" fill="black" />
<circle cx="67.089413" cy="546.455468" r="2.000000" fill="black" />
<circle cx="557.385701" cy="161.665206" r="2.000000" fill="black" />
<circle cx="910.822854" cy="447.725990" r="2.000000" fill="black" />
<circle cx="641.307997" cy="350.551106" r="2.000000" fill="black" />
<circle cx="727.914468" cy="648.374933" r="2.000000" fill="black" />
<circle cx="70.642080" cy="11.250492" r="2.000000" fill="black" />
<circle cx="996.094500" cy="277.255390" r="2.000000" fill="black" />
<circle cx="868.853394" cy="982.298290" r="2.000000" fill="black" />
<circle cx="800.258689" cy="45.882465" r="2.000000" fill="black" />
<circle cx="590.167999" cy="652.169125" r="2.000000" fill="black" />
<circle cx="275.093412" cy="654.574413" r="2.000000" fill="black" />
<circle cx="750.171859" cy="184.202720" r="2.000000" fill="black" />
<circle cx="597.513211" cy="922.363324" r="2.000000" fill="black" />
<circle cx="323.833986" cy="348.649001" r="2.000000" fill="black" />
<circle cx="312.152338" cy="297.196480" r="2.000000" fill="black" />
<circle cx="566.869793" cy="379.241751" r="2.000000" fill="black" />
<circle cx="843.651947" cy="124.255493" r="2.000000" fill="black" />
<circle cx="540.906957" cy="754.474801" r="2.000000" fill="black" />
<circle cx="571.981483" cy="182.214954" r="2.000000" fill="black" />
<circle cx="105.025906" cy="299.895951" r="2.000000" fill="black" />
<circle cx="830.589887" cy="175.667986" r="2.000000" fill="black" />
<circle cx="311.146442" cy="826.684386" r="2.000000" fill="black" />
<circle cx="452.923376" cy="179.999837" r="2.000000" fill="black" />
<circle cx="808.982676" cy="253.182064" r="2.000000" fill="black" />
<circle cx="225.882302" cy="399.150675" r="2.000000" fill="black" />
<circle cx="905.351189" cy="500.975714" r="2.000000" fill="black" />
<circle cx="53.725088" cy="655.523048" r="2.000000" fill="black" />
<circle cx="685.178433" cy="651.238299" r="2.000000" fill="black" />
<circle cx="577.886371" cy="9.012419" r="2.000000" fill="black" />
<circle cx="999.887300" cy="890.038710" r="2.000000" fill="black" />
<circle cx="306.208899" cy="566.757093" r="2.000000" fill="black" />
<circle cx="269.280461" cy="149.860846" r="2.000000" fill="black" />
<circle cx="691.012586" cy="810.187418" r="2.000000" fill="black" />
<circle cx="904.335647" cy="262.994069" r="2.000000" fill="black" />
<circle cx="992.402372" cy="9.361553" r="2.000000" fill="black" />
<circle cx="562.890020" cy="822.992259" r="2.000000" fill="black" />
<circle cx="185.029539" cy="874.036462" r="2.000000" fill="black" />
<circle cx="649.676645" cy="637.952916" r="2.000000" fill="black" />
<circle cx="54.036298" cy="458.659320" r="2.000000" fill="black" />
<circle cx="891.134981" cy="279.918600" r="2.000000" fill="black" />
<circle cx="857.809996" cy="796.486169" r="2.000000" fill="black" />
<circle cx="780.894314" cy="911.535084" r="2.000000" fill="black" />
<circle cx="452.009217" cy="466.072747" r="2.000000" fill="black" />
<circle cx="562.773382" cy="29.895588" r="2.000000" fill="black" />
<circle cx="475.085167" cy="562.660682" r="2.000000" fill="black" />
<circle cx="919.934298" cy="781.294065" r="2.000000" fill="black" />
<circle cx="129.417774" cy="189.214759" r="2.000000" fill="black" />
<circle cx="931.154911" cy="820.430360" r="2.000000" fill="black" />
<circle cx="999.402177" cy="835.490558" r="2.000000" fill="black" />
<circle cx="83.424429" cy="991.804549" r="2.000000" fill="black" />
<circle cx="844.852112" cy="646.314448" r="2.000000" fill="black" />
<circle cx="814.796807" cy="29.881651" r="2.000000" fill="black" />
<circle cx="520.350910" cy="464.473452" r="2.000000" fill="black" />
<circle cx="667.834567" cy="574.387208" r="2.000000" fill="black" />
<circle cx="923.132772" cy="558.969547" r="2.000000" fill="black" />
<circle cx="854.305808" cy="780.942767" r="2.000000" fill="black" />
<circle cx="355.455716" cy="635.200122" r="2.000000" fill="black" />
<circle cx="692.477851" cy="807.464933" r="2.000000" fill="black" />
<circle cx="101.272869" cy="255.251232" r="2.000000" fill="black" />
<circle cx="837.360521" cy="576.358035" r="2.000000" fill="black" />
<circle cx="817.911914" cy="757.294819" r="2.000000" fill="black" />
<circle cx="357.652100" cy="947.329688" r="2.000000" fill="black" />
<circle cx="946.509577" cy="288.807011" r="2.000000" fill="black" />
<circle cx="767.760048" cy="945.911754" r="2.000000" fill="black" />
<circle cx="124.297570" cy="851.184477" r="2.000000" fill="black" />
<circle cx="937.716302" cy="969.149681" r="2.000000" fill="black" />
<circle cx="497.498924" cy="752.513109" r="2.000000" fill="black" />
<circle cx="999.031332" cy="17.849833" r="2.000000" fill="black" />
<circle cx="216.986560" cy="666.865898" r="2.000000" fill="black" />
<circle cx="592.237042" cy="140.119332" r="2.000000" fill="black" />
<circle cx="225.835445" cy="446.542850" r="2.000000" fill="black" />
<circle cx="921.062100" cy="581.291160" r="2.000000" fill="black" />
<circle cx="81.742972" cy="613.539950" r="2.000000" fill="black" />
<circle cx="388.756093" cy="183.015841" r="2.000000" fill="black" />
<circle cx="868.791182" cy="226.116614" r="2.000000" fill="black" />
<circle cx="759.373876" cy="686.703096" r="2.000000" fill="black" />
<circle cx="983.411432" cy="117.025976" r="2.000000" fill="black" />
<circle cx="634.032784" cy="929.921009" r="2.000000" fill="black" />
<circle cx="405.832987" cy="401.792832" r="2.000000" fill="black" />
<circle cx="875.832763" cy="530.130557" r="2.000000" fill="black" />
<circle cx="252.977308" cy="813.549064" r="2.000000" fill="black" />
<circle cx="499.280238" cy="750.476232" r="2.000000" fill="black" />
<circle cx="566.062173" cy="498.311570" r="2.000000" fill="black" />
<circle cx="768.326065" cy="783.048734" r="2.000000" fill="black" />
<circle cx="165.177467" cy="360.563107" r="2.000000" fill="black" />
<circle cx="923.168066" cy="391.012912" r="2.000000" fill="black" />
<circle cx="807.105957" cy="844.230166" r="2.000000" fill="black" />
<circle cx="972.304073" cy="888.848929" r="2.000000" fill="black" />
<circle cx="457.770115" cy="361.060166" r="2.000000" fill="black" />
<circle cx="71.864769" cy="326.561298" r="2.000000" fill="black" />
<circle cx="587.176779" cy="831.238645" r="2.000000" fill="black" />
<circle cx="13.264394" cy="570.588211" r="2.000000" fill="black" />
<circle cx="948.264621" cy="647.297178" r="2.000000" fill="black" />
<circle cx="500.509219" cy="354.097608" r="2.000000" fill="black" />
<circle cx="49.090010" cy="376.341982" r="2.000000" fill="black" />
<circle cx="884.228166" cy="302.067318" r="2.000000" fill="black" />
<circle cx="189.891046" cy="383.508403" r="2.000000" fill="black" />
<circle cx="52.543549" cy="755.953219" r="2.000000" fill="black" />
<circle cx="881.819973" cy="820.869615" r="2.000000" fill="black" />
<circle cx="539.001952" cy="46.997440" r="2.000000" fill="black" />
<circle cx="181.432721" cy="462.170018" r="2.000000" fill="black" />
<circle cx="438.010352" cy="988.538678" r="2.000000" fill="black" />
<circle cx="306.400184" cy="410.314425" r="2.000000" fill="black" />
<circle cx="877.387606" cy="764.170299" r="2.000000" fill="black" />
<circle cx="771.374590" cy="949.252375" r="2.000000" fill="black" />
<circle cx="90.731597" cy="358.551369" r="2.000000" fill="black" />
<circle cx="780.491020" cy="103.995991" r="2.000000" fill="black" />
<circle cx="929.139580" cy="728.755641" r="2.000000" fill="black" />
<circle cx="751.293169" cy="429.648799" r="2.000000" fill="black" />
<circle cx="82.853249" cy="800.383178" r="2.000000" fill="black" />
<circle cx="805.990780" cy="967.081415" r="2.000000" fill="black" />
<circle cx="102.450496" cy="995.881826" r="2.000000" fill="black" />
<circle cx="350.589817" cy="154.994045" r="2.000000" fill="black" />
<circle cx="751.835044" cy="232.409790" r="2.000000" fill="black" />
<circle cx="975.863660" cy="290.836996" r="2.000000" fill="black" />
<circle cx="279.407230" cy="157.296381" r="2.000000" fill="black" />
<circle cx="753.007015" cy="717.417582" r="2.000000" fill="black" />
<circle cx="145.835059" cy="59.407198" r="2.000000" fill="black" />
<circle cx="127.732006" cy="23.222665" r="2.000000" fill="black" />
<circle cx="823.577497" cy="899.106597" r="2.000000" fill="black" />
<circle cx="972.475041" cy="914.309094" r="2.000000" fill="black" />
<circle cx="257.657965" cy="752.966061" r="2.000000" fill="black" />
<circle cx="18.305084" cy="186.797545" r="2.000000" fill="black" />
<circle cx="481.721701" cy="769.598253" r="2.000000" fill="black" />
<circle cx="616.446344" cy="564.574950" r="2.000000" fill="black" />
<circle cx="569.981431" cy="422.437124" r="2.000000" fill="black" />
<circle cx="531.656364" cy="672.431927" r="2.000000" fill="black" />
<circle cx="418.318949" cy="882.246181" r="2.000000" fill="black" />
<circle cx="827.425972" cy="170.153993" r="2.000000" fill="black" />
<circle cx="114.655971" cy="803.289632" r="2.000000" fill="black" />
<circle cx="460.990989" cy="394.063201" r="2.000000" fill="black" />
<circle cx="960.586014" cy="213.998003" r="2.000000" fill="black" />
<circle cx="111.480782" cy="106.421073" r="2.000000" fill="black" />
<circle cx="273.405201" cy="239.212789" r="2.000000" fill="black" />
<circle cx="129.643738" cy="96.982698" r="2.000000" fill="black" />
<circle cx="138.319386" cy="102.118779" r="2.000000" fill="black" />
<circle cx="11.291792" cy="395.977351" r="2.000000" fill="black" />
<circle cx="855.084840" cy="29.596876" r="2.000000" fill="black" />
<circle cx="582.774896" cy="336.806541" r="2.000000" fill="black" />
<circle cx="799.195130" cy="199.221240" r="2.000000" fill="black" />
<circle cx="901.381491" cy="369.176561" r="2.000000" fill="black" />
<circle cx="621.658363" cy="433.037854" r="2.000000" fill="black" />
<circle cx="41.608488" cy="39.977312" r="2.000000" fill="black" />
<circle cx="315.284035" cy="869.034461" r="2.000000" fill="black" />
<circle cx="210.131305" cy="429.940006" r="2.000000" fill="black" />
<circle cx="672.324092" cy="671.122294" r="2.000000" fill="black" />
<circle cx="824.003207" cy="632.910106" r="2.000000" fill="black" />
<circle cx="885.120298" cy="935.483990" r="2.000000" fill="black" />
<circle cx="739.331178" cy="158.525499" r="2.000000" fill="black" />
<circle cx="174.696778" cy="868.974917" r="2.000000" fill="black" />
<circle cx="255.508197" cy="313.016164" r="2.000000" fill="black" />
<circle cx="971.093695" cy="266.799989" r="2.000000" fill="black" />
<circle cx="708.993515" cy="826.178534" r="2.000000" fill="black" />
<circle cx="296.396865" cy="291.768411" r="2.000000" fill="black" />
<circle cx="162.985074" cy="95.591995" r="2.000000" fill="black" />
<circle cx="490.989651" cy="64.366565" r="2.000000" fill="black" />
<circle cx="464.768555" cy="112.648014" r="2.000000" fill="black" />
<circle cx="497.404419" cy="506.377043" r="2.000000" fill="black" />
<circle cx="152.625325" cy="812.688455" r="2.000000" fill="black" />
<circle cx="375.411504" cy="362.756630" r="2.000000" fill="black" />
<circle cx="242.628461" cy="47.735596" r="2.000000" fill="black" />
<circle cx="33.878924" cy="66.631667" r="2.000000" fill="black" />
<circle cx="680.645702" cy="918.999222" r="2.000000" fill="black" />
<circle cx="2.115657" cy="419.976880" r="2.000000" fill="black" />
<circle cx="77.524720" cy="176.812435" r="2.000000" fill="black" />
<circle cx="288.951796" cy="333.032917" r="2.000000" fill="black" />
<circle cx="489.828599" cy="260.045491" r="2.000000" fill="black" />
<circle cx="599.832906" cy="198.822115" r="2.000000" fill="black" />
<circle cx="86.224025" cy="896.229771" r="2.000000" fill="black" />
<circle cx="490.590526" cy="249.209100" r="2.000000" fill="black" />
<circle cx="991.821765" cy="981.580177" r="2.000000" fill="black" />
<circle cx="313.575664" cy="456.590320" r="2.000000" fill="black" />
<circle cx="94.228190" cy="810.980084" r="2.000000" fill="black" />
<circle cx="962.967364" cy="246.853515" r="2.000000" fill="black" />
<circle cx="623.668538" cy="338.378867" r="2.000000" fill="black" />
<circle cx="609.610146" cy="866.296999" r="2.000000" fill="black" />
<circle cx="386.114463" cy="643.489070" r="2.000000" fill="black" />
<circle cx="932.928666" cy="66.760164" r="2.000000" fill="black" />
<circle cx="562.488291" cy="935.044324" r="2.000000" fill="black" />
<circle cx="486.737044" cy="640.013011" r="2.000000" fill="black" />
<circle cx="111.856758" cy="775.688840" r="2.000000" fill="black" />
<circle cx="973.045928" cy="601.685358" r="2.000000" fill="black" />
<circle cx="35.734330" cy="572.878833" r="2.000000" fill="black" />
<circle cx="800.507473" cy="121.958355" r="2.000000" fill="black" />
<circle cx="469.108604" cy="291.097998" r="2.000000" fill="black" />
<circle cx="371.167455" cy="460.930369" r="2.000000" fill="black" />
<circle cx="272.678175" cy="684.743119" r="2.000000" fill="black" />
<circle cx="917.520689" cy="366.906365" r="2.000000" fill="black" />
<circle cx="495.723203" cy="880.488052" r="2.000000" fill="black" />
<circle cx="613.759880" cy="119.391740" r="2.000000" fill="black" />
<circle cx="218.866919" cy="223.370025" r="2.000000" fill="black" />
<circle cx="985.688739" cy="604.981382" r="2.000000" fill="black" />
<circle cx="866.859095" cy="918.617405" r="2.000000" fill="black" />
<circle cx="671.741546" cy="429.347386" r="2.000000" fill="black" />
<circle cx="853.661728" cy="158.478590" r="2.000000" fill="black" />
<circle cx="69.360396" cy="965.518487" r="2.000000" fill="black" />
<circle cx="934.167430" cy="42.406324" r="2.000000" fill="black" />
<circle cx="567.203845" cy="969.901760" r="2.000000" fill="black" />
<circle cx="615.285158" cy="367.711317" r="2.000000" fill="black" />
<circle cx="91.860115" cy="84.393761" r="2.000000" fill="black" />
<circle cx="658.809315" cy="463.027570" r="2.000000" fill="black" />
<circle cx="545.324130" cy="931.487490" r="2.000000" fill="black" />
<circle cx="147.770688" cy="462.844819" r="2.000000" fill="black" />
<circle cx="298.393854" cy="643.493891" r="2.000000" fill="black" />
<circle cx="343.332871" cy="912.153734" r="2.000000" fill="black" />
<circle cx="762.885631" cy="562.199790" r="2.000000" fill="black" />
<circle cx="135.523759" cy="748.574370" r="2.000000" fill="black" />
<circle cx="167.181172" cy="2.382854" r="2.000000" fill="black" />
<circle cx="667.191776" cy="838.922718" r="2.000000" fill="black" />
<circle cx="431.730239" cy="520.853504" r="2.000000" fill="black" />
<circle cx="997.401308" cy="501.090636" r="2.000000" fill="black" />
<circle cx="486.371991" cy="931.568738" r="2.000000" fill="black" />
<circle cx="543.496960" cy="53.575835" r="2.000000" fill="black" />
<circle cx="901.470498" cy="158.782118" r="2.000000" fill="black" />
<circle cx="421.287152" cy="993.330613" r="2.000000" fill="black" />
<circle cx="243.175879" cy="80.096467" r="2.000000" fill="black" />
<circle cx="456.358182" cy="788.500009" r="2.000000" fill="black" />
<circle cx="11.583956" cy="604.128871" r="2.000000" fill="black" />
<circle cx="251.344827" cy="309.977810" r="2.000000" fill="black" />
<circle cx="247.622762" cy="594.677698" r="2.000000" fill="black" />
<circle cx="222.131544" cy="10.508393" r="2.000000" fill="black" />
<circle cx="156.877488" cy="357.655303" r="2.000000" fill="black" />
<circle cx="759.082764" cy="324.058660" r="2.000000" fill="black" />
<circle cx="360.038156" cy="426.274539" r="2.000000" fill="black" />
<circle cx="162.981378" cy="791.768396" r="2.000000" fill="black" />
<circle cx="947.128043" cy="160.382686" r="2.000000" fill="black" />
<circle cx="292.859031" cy="433.500034" r="2.000000" fill="black" />
<circle cx="91.951423" cy="836.355992" r="2.000000" fill="black" />
<circle cx="487.075868" cy="993.421922" r="2.000000" fill="black" />
<circle cx="995.138109" cy="908.363020" r="2.000000" fill="black" />
<circle cx="986.752534" cy="238.313987" r="2.000000" fill="black" />
<circle cx="988.459487" cy="443.110716" r="2.000000" fill="black" />
<circle cx="26.813996" cy="0.043443" r="2.000000" fill="black" />
<circle cx="47.239587" cy="278.158823" r="2.000000" fill="black" />
<circle cx="310.021253" cy="294.862349" r="2.000000" fill="black" />
<circle cx="872.836521" cy="532.152797" r="2.000000" fill="black" />
<circle cx="305.370742" cy="29.714008" r="2.000000" fill="black" />
<circle cx="889.808100" cy="64.453505" r="2.000000" fill="black" />
<circle cx="353.772668" cy="249.846256" r="2.000000" fill="black" />
<circle cx="490.728044" cy="516.754046" r="2.000000" fill="black" />
<circle cx="41.614651" cy="437.856087" r="2.000000" fill="black" />
<circle cx="677.136733" cy="334.473682" r="2.000000" fill="black" />
<circle cx="871.356121" cy="769.088156" r="2.000000" fill="black" />
<circle cx="170.829673" cy="358.431989" r="2.000000" fill="black" />
<circle cx="762.510077" cy="165.967782" r="2.000000" fill="black" />
<circle cx="266.795009" cy="749.262611" r="2.000000" fill="black" />
<circle cx="404.281770" cy="255.254496" r="2.000000" fill="black" />
<circle cx="192.373326" cy="431.095765" r="2.000000" fill="black" />
<circle cx="255.297938" cy="239.612913" r="2.000000" fill="black" />
<circle cx="709.254588" cy="565.319191" r="2.000000" fill="black" />
<circle cx="534.475262" cy="582.091109" r="2.000000" fill="black" />
<circle cx="97.471988" cy="839.846004" r="2.000000" fill="black" />
<circle cx="611.805118" cy="987.280088" r="2.000000" fill="black" />
<circle cx="904.299509" cy="965.577786" r="2.000000" fill="black" />
<circle cx="237.126344" cy="395.027553" r="2.000000" fill="black" />
<circle cx="482.331832" cy="278.740994" r="2.000000" fill="black" />
<circle cx="832.883640" cy="159.468564" r="2.000000" fill="black" />
<circle cx="613.214677" cy="704.239760" r="2.000000" fill="black" />
<circle cx="928.556720" cy="784.044350" r="2.000000" fill="black" />
<circle cx="62.671748" cy="691.066797" r="2.000000" fill="black" />
<circle cx="950.012132" cy="329.466758" r="2.000000" fill="black" />
<circle cx="440.329408" cy="354.293901" r="2.000000" fill="black" />
<circle cx="584.721253" cy="632.702734" r="2.000000" fill="black" />
<circle cx="785.389667" cy="840.019192" r="2.000000" fill="black" />
<circle cx="872.315647" cy="494.644255" r="2.000000" fill="black" />
<circle cx="405.338383" cy="406.790908" r="2.000000" fill="black" />
<circle cx="76.735363" cy="502.810371" r="2.000000" fill="black" />
<circle cx="246.636911" cy="688.540480" r="2.000000" fill="black" />
<circle cx="490.090459" cy="150.936420" r="2.000000" fill="black" />
<circle cx="654.118266" cy="727.216802" r="2.000000" fill="black" />
<circle cx="545.963973" cy="136.450098" r="2.000000" fill="black" />
<circle cx="5.957796" cy="378.847613" r="2.000000" fill="black" />
<circle cx="295.918662" cy="619.172473" r="2.000000" fill="black" />
<circle cx="83.087373" cy="224.475382" r="2.000000" fill="black" />
<circle cx="403.216823" cy="145.759121" r="2.000000" fill="black" />
<circle cx="915.542179" cy="353.228955" r="2.000000" fill="black" />
<circle cx="475.225879" cy="355.871586" r="2.000000" fill="black" />
<circle cx="707.522856" cy="59.947131" r="2.000000" fill="black" />
<circle cx="988.574320" cy="492.912522" r="2.000000" fill="black" />
<circle cx="899.966323" cy="860.889967" r="2.000000" fill="black" />
<circle cx="987.556777" cy="305.304705" r="2.000000" fill="black" />
<circle cx="267.680875" cy="64.292140" r="2.000000" fill="black" />
<circle cx="808.115076" cy="514.317787" r="2.000000" fill="black" />
<circle cx="752.832620" cy="298.205535" r="2.000000" fill="black" />
<circle cx="665.254207" cy="406.950886" r="2.000000" fill="black" />
<circle cx="25.422337" cy="211.218179" r="2.000000" fill="black" />
<circle cx="543.400984" cy="31.380133" r="2.000000" fill="black" />
<circle cx="590.065792" cy="839.319646" r="2.000000" fill="black" />
<circle cx="650.552607" cy="673.153165" r="2.000000" fill="black" />
<circle cx="63.795028" cy="53.769429" r="2.000000" fill="black" />
<circle cx="818.912286" cy="979.337207" r="2.000000" fill="black" />
<circle cx="406.998384" cy="294.138164" r="2.000000" fill="black" />
<circle cx="335.208794" cy="114.521239" r="2.000000" fill="black" />
<circle cx="354.085296" cy="323.783114" r="2.000000" fill="black" />
<circle cx="607.433762" cy="254.051618" r="2.000000" fill="black" />
<circle cx="184.673080" cy="594.990539" r="2.000000" fill="black" />
<circle cx="559.356324" cy="452.353955" r="2.000000" fill="black" />
<circle cx="659.282679" cy="367.471399" r="2.000000" fill="black" />
<circle cx="966.671742" cy="412.115298" r="2.000000" fill="black" />
<circle cx="665.676934" cy="631.925948" r="2.000000" fill="black" />
<circle cx="819.066185" cy="691.099271" r="2.000000" fill="black" />
<circle cx="843.144127" cy="362.467169" r="2.000000" fill="black" />
<circle cx="722.479404" cy="433.209919" r="2.000000" fill="black" />
<circle cx="201.786815" cy="373.032010" r="2.000000" fill="black" />
<circle cx="106.363083" cy="265.581843" r="2.000000" fill="black" />
<circle cx="426.801440" cy="925.275369" r="2.000000" fill="black" />
<circle cx="244.919050" cy="833.799823" r="2.000000" fill="black" />
<circle cx="219.413533" cy="580.127844" r="2.000000" fill="black" />
<circle cx="948.321063" cy="573.498829" r="2.000000" fill="black" />
<circle cx="903.910958" cy="555.754824" r="2.000000" fill="black" />
<circle cx="827.550447" cy="88.584038" r="2.000000" fill="black" />
<circle cx="150.745363" cy="386.906770" r="2.000000" fill="black" />
<circle cx="540.937993" cy="810.028041" r="2.000000" fill="black" />
<circle cx="754.378170" cy="507.609734" r="2.000000" fill="black" />
<circle cx="222.143339" cy="420.055104" r="2.000000" fill="black" />
<circle cx="139.535682" cy="41.209524" r="2.000000" fill="black" />
<circle cx="111.154375" cy="982.679809" r="2.000000" fill="black" />
<circle cx="403.676693" cy="833.633779" r="2.000000" fill="black" />
<circle cx="415.889728" cy="605.463507" r="2.000000" fill="black" />
<circle cx="206.665789" cy="522.252810" r="2.000000" fill="black" />
<circle cx="871.045351" cy="633.467229" r="2.000000" fill="black" />
<circle cx="447.528179" cy="115.964400" r="2.000000" fill="black" />
<circle cx="467.267052" cy="666.941712" r="2.000000" fill="black" />
<circle cx="696.092245" cy="415.588114" r="2.000000" fill="black" />
<circle cx="240.440541" cy="600.003202" r="2.000000" fill="black" />
<circle cx="971.342938" cy="67.990987" r="2.000000" fill="black" />
<circle cx="688.587240" cy="122.088301" r="2.000000" fill="black" />
<circle cx="454.897758" cy="229.525232" r="2.000000" fill="black" />
<circle cx="932.116342" cy="209.275927" r="2.000000" fill="black" />
<circle cx="737.134966" cy="154.259681" r="2.000000" fill="black" />
<circle cx="629.331032" cy="876.670648" r="2.000000" fill="black" />
<circle cx="195.469204" cy="740.485406" r="2.000000" fill="black" />
<circle cx="859.350457" cy="599.145897" r="2.000000" fill="black" />
<circle cx="574.119185" cy="275.240184" r="2.000000" fill="black" />
<circle cx="204.609404" cy="780.784975" r="2.000000" fill="black" />
<circle cx="797.492995" cy="75.654754" r="2.000000" fill="black" />
<circle cx="414.252204" cy="245.021174" r="2.000000" fill="black" />
<circle cx="191.619155" cy="881.519256" r="2.000000" fill="black" />
<circle cx="911.962886" cy="887.711399" r="2.000000" fill="black" />
<circle cx="297.107370" cy="152.403426" r="2.000000" fill="black" />
<circle cx="487.714601" cy="268.450308" r="2.000000" fill="black" />
<circle cx="220.394414" cy="176.301840" r="2.000000" fill="black" />
<circle cx="390.538609" cy="675.292171" r="2.000000" fill="black" />
<circle cx="405.827072" cy="322.654950" r="2.000000" fill="black" />
<circle cx="884.568099" cy="142.962039" r="2.000000" fill="black" />
<circle cx="476.914631" cy="513.899130" r="2.000000" fill="black" />
<circle cx="19.632686" cy="672.383836" r="2.000000" fill="black" />
<circle cx="254.384536" cy="878.983144" r="2.000000" fill="black" />
<circle cx="271.529732" cy="828.503722" r="2.000000" fill="black" />
<circle cx="154.223328" cy="476.139137" r="2.000000" fill="black" />
<circle cx="609.288696" cy="951.716323" r="2.000000" fill="black" />
<circle cx="551.793891" cy="23.540900" r="2.000000" fill="black" />
<circle cx="196.737496" cy="743.413045" r="2.000000" fill="black" />
<circle cx="905.060156" cy="108.700382" r="2.000000" fill="black" />
<circle cx="631.124444" cy="202.167525" r="2.000000" fill="black" />
<circle cx="261.103808" cy="118.839045" r="2.000000" fill="black" />
<circle cx="470.617833" cy="481.498222" r="2.000000" fill="black" />
<circle cx="295.140884" cy="861.156442" r="2.000000" fill="black" />
<circle cx="156.790393" cy="700.967957" r="2.000000" fill="black" />
<circle cx="183.811392" cy="41.358491" r="2.000000" fill="black" />
<circle cx="843.929996" cy="660.726023" r="2.000000" fill="black" />
<circle cx="555.257621" cy="863.562682" r="2.000000" fill="black" />
<circle cx="333.109858" cy="809.642157" r="2.000000" fill="black" />
<circle cx="742.545826" cy="604.639591" r="2.000000" fill="black" />
<circle cx="638.145878" cy="896.769153" r="2.000000" fill="black" />
<circle cx="80.778727" cy="247.434574" r="2.000000" fill="black" />
<circle cx="213.305005" cy="891.939975" r="4.000000" fill="#064068" />
<circle cx="213.305005" cy="891.939975" r="25.412862" stroke="#064068" stroke-width="1.000000" fill-opacity="0" />
<circle cx="795.649666" cy="739.541640" r="4.000000" fill="#040071" />
<circle cx="795.649666" cy="739.541640" r="48.040292" stroke="#040071" stroke-width="1.000000" fill-opacity="0" />
<circle cx="484.746842" cy="190.279309" r="4.000000" fill="#16362a" />
<circle cx="484.746842" cy="190.279309" r="38.179125" stroke="#16362a" stroke-width="1.000000" fill-opacity="0" />
<circle cx="666.245578" cy="502.941571" r="4.000000" fill="#0d1942" />
<circle cx="666.245578" cy="502.941571" r="29.516037" stroke="#0d1942" stroke-width="1.000000" fill-opacity="0" />
<circle cx="895.190665" cy="659.955103" r="4.000000" fill="#0c3255" />
<circle cx="895.190665" cy="659.955103" r="54.562514" stroke="#0c3255" stroke-width="1.000000" fill-opacity="0" />
<circle cx="378.432666" cy="188.439664" r="4.000000" fill="#040448" />
<circle cx="378.432666" cy="188.439664" r="37.246838" stroke="#040448" stroke-width="1.000000" fill-opacity="0" />
<circle cx="214.919837" cy="886.192375" r="4.000000" fill="#5c7f04" />
<circle cx="214.919837" cy="886.192375" r="22.042758" stroke="#5c7f04" stroke-width="1.000000" fill-opacity="0" />
<circle cx="461.908227" cy="13.423992" r="4.000000" fill="#28481f" />
<circle cx="461.908227" cy="13.423992" r="64.959827" stroke="#28481f" stroke-width="1.000000" fill-opacity="0" />
<circle cx="370.194073" cy="837.255125" r="4.000000" fill="#1b4555" />
<circle cx="370.194073" cy="837.255125" r="44.852473" stroke="#1b4555" stroke-width="1.000000" fill-opacity="0" />
<circle cx="682.894308" cy="389.221242" r="4.000000" fill="#623c68" />
<circle cx="682.894308" cy="389.221242" r="35.489054" stroke="#623c68" stroke-width="1.000000" fill-opacity="0" />
<circle cx="801.433983" cy="803.366858" r="4.000000" fill="#504329" />
<circle cx="801.433983" cy="803.366858" r="41.208503" stroke="#504329" stroke-width="1.000000" fill-opacity="0" />
<circle cx="879.088615" cy="258.106894" r="4.000000" fill="#384729" />
<circle cx="879.088615" cy="258.106894" r="33.606773" stroke="#384729" stroke-width="1.000000" fill-opacity="0" />
<circle cx="737.805098" cy="182.537823" r="4.000000" fill="#295d60" />
<circle cx="737.805098" cy="182.537823" r="31.414573" stroke="#295d60" stroke-width="1.000000" fill-opacity="0" />
<circle cx="5.162458" cy="481.723499" r="4.000000" fill="#546a79" />
<circle cx="5.162458" cy="481.723499" r="54.042655" stroke="#546a79" stroke-width="1.000000" fill-opacity="0" />
<circle cx="200.444437" cy="758.589848" r="4.000000" fill="#16772b" />
<circle cx="200.444437" cy="758.589848" r="22.582529" stroke="#16772b" stroke-width="1.000000" fill-opacity="0" />
<circle cx="293.364046" cy="413.749441" r="4.000000" fill="#6b7b30" />
<circle cx="293.364046" cy="413.749441" r="44.548832" stroke="#6b7b30" stroke-width="1.000000" fill-opacity="0" />
<circle cx="650.529823" cy="89.013713" r="4.000000" fill="#33572f" />
<circle cx="650.529823" cy="89.013713" r="47.695422" stroke="#33572f" stroke-width="1.000000" fill-opacity="0" />
<circle cx="153.291081" cy="135.276665" r="4.000000" fill="#377f77" />
<circle cx="153.291081" cy="135.276665" r="36.381274" stroke="#377f77" stroke-width="1.000000" fill-opacity="0" />
<circle cx="279.293022" cy="819.536659" r="4.000000" fill="#561a3c" />
<circle cx="279.293022" cy="819.536659" r="26.988295" stroke="#561a3c" stroke-width="1.000000" fill-opacity="0" />
<circle cx="638.218236" cy="174.483686" r="4.000000" fill="#2c7d78" />
<circle cx="638.218236" cy="174.483686" r="48.368424" stroke="#2c7d78" stroke-width="1.000000" fill-opacity="0" />
<circle cx="479.491762" cy="16.650901" r="4.000000" fill="#144d3b" />
<circle cx="479.491762" cy="16.650901" r="54.917254" stroke="#144d3b" stroke-width="1.000000" fill-opacity="0" />
<circle cx="362.923349" cy="694.411599" r="4.000000" fill="#3d0502" />
<circle cx="362.923349" cy="694.411599" r="42.715172" stroke="#3d0502" stroke-width="1.000000" fill-opacity="0" />
<circle cx="902.843276" cy="824.831576" r="4.000000" fill="#672f60" />
<circle cx="902.843276" cy="824.831576" r="28.651691" stroke="#672f60" stroke-width="1.000000" fill-opacity="0" />
<circle cx="707.835591" cy="273.037348" r="4.000000" fill="#47034a" />
<circle cx="707.835591" cy="273.037348" r="48.241217" stroke="#47034a" stroke-width="1.000000" fill-opacity="0" />
<circle cx="662.086701" cy="390.729898" r="4.000000" fill="#401941" />
<circle cx="662.086701" cy="390.729898" r="30.942332" stroke="#401941" stroke-width="1.000000" fill-opacity="0" />
<circle cx="662.258590" cy="463.520684" r="4.000000" fill="#6b053d" />
<circle cx="662.258590" cy="463.520684" r="33.870651" stroke="#6b053d" stroke-width="1.000000" fill-opacity="0" />
<circle cx="194.096756" cy="541.347206" r="4.000000" fill="#1b3814" />
<circle cx="194.096756" cy="541.347206" r="36.572744" stroke="#1b3814" stroke-width="1.000000" fill-opacity="0" />
<circle cx="721.627578" cy="931.901854" r="4.000000" fill="#4a7014" />
<circle cx="721.627578" cy="931.901854" r="48.212883" stroke="#4a7014" stroke-width="1.000000" fill-opacity="0" />
<circle cx="723.885028" cy="726.790036" r="4.000000" fill="#41462e" />
<circle cx="723.885028" cy="726.790036" r="31.852217" stroke="#41462e" stroke-width="1.000000" fill-opacity="0" />
<circle cx="413.625352" cy="924.329465" r="4.000000" fill="#7d722b" />
<circle cx="413.625352" cy="924.329465" r="30.369322" stroke="#7d722b" stroke-width="1.000000" fill-opacity="0" />
<circle cx="485.379885" cy="706.989399" r="4.000000" fill="#760778" />
<circle cx="485.379885" cy="706.989399" r="43.953292" stroke="#760778" stroke-width="1.000000" fill-opacity="0" />
<circle cx="338.078906" cy="135.909707" r="4.000000" fill="#31447e" />
<circle cx="338.078906" cy="135.909707" r="47.680249" stroke="#31447e" stroke-width="1.000000" fill-opacity="0" />
<circle cx="796.003111" cy="491.369988" r="4.000000" fill="#342b2d" />
<circle cx="796.003111" cy="491.369988" r="40.965238" stroke="#342b2d" stroke-width="1.000000" fill-opacity="0" />
<circle cx="271.186372" cy="75.296132" r="4.000000" fill="#147230" />
<circle cx="271.186372" cy="75.296132" r="42.569782" stroke="#147230" stroke-width="1.000000" fill-opacity="0" />
<circle cx="310.906646" cy="909.404608" r="4.000000" fill="#5e3249" />
<circle cx="310.906646" cy="909.404608" r="40.606777" stroke="#5e3249" stroke-width="1.000000" fill-opacity="0" />
<circle cx="249.779819" cy="790.398408" r="4.000000" fill="#201e4e" />
<circle cx="249.779819" cy="790.398408" r="38.252396" stroke="#201e4e" stroke-width="1.000000" fill-opacity="0" />
<circle cx="926.055510" cy="612.703168" r="4.000000" fill="#5d3907" />
<circle cx="926.055510" cy="612.703168" r="48.264807" stroke="#5d3907" stroke-width="1.000000" fill-opacity="0" />
<circle cx="484.810006" cy="828.898786" r="4.000000" fill="#710477" />
<circle cx="484.810006" cy="828.898786" r="30.313807" stroke="#710477" stroke-width="1.000000" fill-opacity="0" />
<circle cx="437.534744" cy="192.645597" r="4.000000" fill="#05453d" />
<circle cx="437.534744" cy="192.645597" r="35.510543" stroke="#05453d" stroke-width="1.000000" fill-opacity="0" />
<circle cx="101.936133" cy="99.621445" r="4.000000" fill="#344330" />
<circle cx="101.936133" cy="99.621445" r="33.603380" stroke="#344330" stroke-width="1.000000" fill-opacity="0" />
<circle cx="583.375495" cy="764.194724" r="4.000000" fill="#5f3937" />
<circle cx="583.375495" cy="764.194724" r="49.490265" stroke="#5f3937" stroke-width="1.000000" fill-opacity="0" />
<circle cx="563.142129" cy="777.472251" r="4.000000" fill="#586a7b" />
<circle cx="563.142129" cy="777.472251" r="39.406892" stroke="#586a7b" stroke-width="1.000000" fill-opacity="0" />
<circle cx="305.541929" cy="284.769707" r="4.000000" fill="#561e27" />
<circle cx="305.541929" cy="284.769707" r="26.489276" stroke="#561e27" stroke-width="1.000000" fill-opacity="0" />
<circle cx="709.374105" cy="29.426957" r="4.000000" fill="#033219" />
<circle cx="709.374105" cy="29.426957" r="50.789802" stroke="#033219" stroke-width="1.000000" fill-opacity="0" />
<circle cx="11.559743" cy="122.999457" r="4.000000" fill="#33114c" />
<circle cx="11.559743" cy="122.999457" r="60.625683" stroke="#33114c" stroke-width="1.000000" fill-opacity="0" />
<circle cx="953.756423" cy="496.939628" r="4.000000" fill="#7c316a" />
<circle cx="953.756423" cy="496.939628" r="35.050015" stroke="#7c316a" stroke-width="1.000000" fill-opacity="0" />
<circle cx="829.988855" cy="291.835329" r="4.000000" fill="#4b0e23" />
<circle cx="829.988855" cy="291.835329" r="55.195982" stroke="#4b0e23" stroke-width="1.000000" fill-opacity="0" />
<circle cx="632.849335" cy="625.991966" r="4.000000" fill="#527f27" />
<circle cx="632.849335" cy="625.991966" r="35.732694" stroke="#527f27" stroke-width="1.000000" fill-opacity="0" />
<circle cx="783.205316" cy="904.035707" r="4.000000" fill="#49056d" />
<circle cx="783.205316" cy="904.035707" r="46.598634" stroke="#49056d" stroke-width="1.000000" fill-opacity="0" />
<circle cx="701.288099" cy="94.111962" r="4.000000" fill="#063930" />
<circle cx="701.288099" cy="94.111962" r="44.352692" stroke="#063930" stroke-width="1.000000" fill-opacity="0" />
<circle cx="813.440315" cy="951.067917" r="4.000000" fill="#361869" />
<circle cx="813.440315" cy="951.067917" r="40.091224" stroke="#361869" stroke-width="1.000000" fill-opacity="0" />
<circle cx="884.510369" cy="739.495824" r="4.000000" fill="#6d7053" />
<circle cx="884.510369" cy="739.495824" r="24.816033" stroke="#6d7053" stroke-width="1.000000" fill-opacity="0" />
<circle cx="563.771086" cy="369.320375" r="4.000000" fill="#694672" />
<circle cx="563.771086" cy="369.320375" r="31.563424" stroke="#694672" stroke-width="1.000000" fill-opacity="0" />
<circle cx="568.394610" cy="1.305829" r="4.000000" fill="#104924" />
<circle cx="568.394610" cy="1.305829" r="39.704588" stroke="#104924" stroke-width="1.000000" fill-opacity="0" />
<circle cx="561.965972" cy="670.330743" r="4.000000" fill="#297c35" />
<circle cx="561.965972" cy="670.330743" r="34.139612" stroke="#297c35" stroke-width="1.000000" fill-opacity="0" />
<circle cx="100.927275" cy="145.341467" r="4.000000" fill="#757966" />
<circle cx="100.927275" cy="145.341467" r="41.322852" stroke="#757966" stroke-width="1.000000" fill-opacity="0" />
<circle cx="434.525467" cy="664.069404" r="4.000000" fill="#5f4474" />
<circle cx="434.525467" cy="664.069404" r="40.269534" stroke="#5f4474" stroke-width="1.000000" fill-opacity="0" />
<circle cx="922.813719" cy="740.067396" r="4.000000" fill="#031674" />
<circle cx="922.813719" cy="740.067396" r="34.881687" stroke="#031674" stroke-width="1.000000" fill-opacity="0" />
<circle cx="948.839111" cy="632.187823" r="4.000000" fill="#2a5f79" />
<circle cx="948.839111" cy="632.187823" r="40.204510" stroke="#2a5f79" stroke-width="1.000000" fill-opacity="0" />
<circle cx="769.494354" cy="960.398855" r="4.000000" fill="#176532" />
<circle cx="769.494354" cy="960.398855" r="37.103177" stroke="#176532" stroke-width="1.000000" fill-opacity="0" />
<circle cx="755.187280" cy="723.250776" r="4.000000" fill="#471c4a" />
<circle cx="755.187280" cy="723.250776" r="36.786689" stroke="#471c4a" stroke-width="1.000000" fill-opacity="0" />
<circle cx="457.338482" cy="585.176135" r="4.000000" fill="#30093b" />
<circle cx="457.338482" cy="585.176135" r="39.413943" stroke="#30093b" stroke-width="1.000000" fill-opacity="0" />
<circle cx="15.086105" cy="90.187817" r="4.000000" fill="#047201" />
<circle cx="15.086105" cy="90.187817" r="49.935617" stroke="#047201" stroke-width="1.000000" fill-opacity="0" />
<circle cx="211.168101" cy="798.291421" r="4.000000" fill="#76024b" />
<circle cx="211.168101" cy="798.291421" r="36.018297" stroke="#76024b" stroke-width="1.000000" fill-opacity="0" />
<circle cx="994.223525" cy="912.456200" r="4.000000" fill="#1a2c47" />
<circle cx="994.223525" cy="912.456200" r="41.944619" stroke="#1a2c47" stroke-width="1.000000" fill-opacity="0" />
<circle cx="892.403383" cy="807.663840" r="4.000000" fill="#502140" />
<circle cx="892.403383" cy="807.663840" r="36.354405" stroke="#502140" stroke-width="1.000000" fill-opacity="0" />
<circle cx="863.524117" cy="776.913752" r="4.000000" fill="#360104" />
<circle cx="863.524117" cy="776.913752" r="16.208400" stroke="#360104" stroke-width="1.000000" fill-opacity="0" />
<circle cx="547.159664" cy="427.295202" r="4.000000" fill="#2b041a" />
<circle cx="547.159664" cy="427.295202" r="45.835920" stroke="#2b041a" stroke-width="1.000000" fill-opacity="0" />
<circle cx="146.234127" cy="115.554273" r="4.000000" fill="#1f2e79" />
<circle cx="146.234127" cy="115.554273" r="26.059294" stroke="#1f2e79" stroke-width="1.000000" fill-opacity="0" />
<circle cx="428.601032" cy="708.200099" r="4.000000" fill="#18465f" />
<circle cx="428.601032" cy="708.200099" r="50.315800" stroke="#18465f" stroke-width="1.000000" fill-opacity="0" />
<circle cx="785.885016" cy="529.528307" r="4.000000" fill="#4a0d7b" />
<circle cx="785.885016" cy="529.528307" r="38.381052" stroke="#4a0d7b" stroke-width="1.000000" fill-opacity="0" />
<circle cx="853.541566" cy="220.410483" r="4.000000" fill="#143e04" />
<circle cx="853.541566" cy="220.410483" r="13.560845" stroke="#143e04" stroke-width="1.000000" fill-opacity="0" />
<circle cx="193.597710" cy="776.355285" r="4.000000" fill="#4f4277" />
<circle cx="193.597710" cy="776.355285" r="34.277161" stroke="#4f4277" stroke-width="1.000000" fill-opacity="0" />
<circle cx="960.477879" cy="142.436822" r="4.000000" fill="#513879" />
<circle cx="960.477879" cy="142.436822" r="33.636784" stroke="#513879" stroke-width="1.000000" fill-opacity="0" />
<circle cx="408.543107" cy="729.972232" r="4.000000" fill="#1c5225" />
<circle cx="408.543107" cy="729.972232" r="58.325059" stroke="#1c5225" stroke-width="1.000000" fill-opacity="0" />
<circle cx="102.835676" cy="163.730387" r="4.000000" fill="#632247" />
<circle cx="102.835676" cy="163.730387" r="29.820596" stroke="#632247" stroke-width="1.000000" fill-opacity="0" />
<circle cx="453.223007" cy="560.174159" r="4.000000" fill="#245948" />
<circle cx="453.223007" cy="560.174159" r="38.601392" stroke="#245948" stroke-width="1.000000" fill-opacity="0" />
<circle cx="748.906522" cy="468.309112" r="4.000000" fill="#28044c" />
<circle cx="748.906522" cy="468.309112" r="39.679690" stroke="#28044c" stroke-width="1.000000" fill-opacity="0" />
<circle cx="650.361976" cy="960.074623" r="4.000000" fill="#43237a" />
<circle cx="650.361976" cy="960.074623" r="34.291149" stroke="#43237a" stroke-width="1.000000" fill-opacity="0" />
<circle cx="266.600533" cy="644.585500" r="4.000000" fill="#3c3b40" />
<circle cx="266.600533" cy="644.585500" r="38.799158" stroke="#3c3b40" stroke-width="1.000000" fill-opacity="0" />
<circle cx="872.530822" cy="159.003916" r="4.000000" fill="#1b054e" />
<circle cx="872.530822" cy="159.003916" r="24.390150" stroke="#1b054e" stroke-width="1.000000" fill-opacity="0" />
<circle cx="452.249340" cy="736.054939" r="4.000000" fill="#16190c" />
<circle cx="452.249340" cy="736.054939" r="44.651697" stroke="#16190c" stroke-width="1.000000" fill-opacity="0" />
<circle cx="935.917668" cy="999.409003" r="4.000000" fill="#1b694e" />
<circle cx="935.917668" cy="999.409003" r="50.896778" stroke="#1b694e" stroke-width="1.000000" fill-opacity="0" />
<circle cx="163.350141" cy="82.151795" r="4.000000" fill="#123a06" />
<circle cx="163.350141" cy="82.151795" r="32.019043" stroke="#123a06" stroke-width="1.000000" fill-opacity="0" />
<circle cx="114.963276" cy="591.951173" r="4.000000" fill="#0b5658" />
<circle cx="114.963276" cy="591.951173" r="55.897441" stroke="#0b5658" stroke-width="1.000000" fill-opacity="0" />
<circle cx="790.351895" cy="900.848292" r="4.000000" fill="#31397b" />
<circle cx="790.351895" cy="900.848292" r="47.421778" stroke="#31397b" stroke-width="1.000000" fill-opacity="0" />
<circle cx="121.479479" cy="643.893461" r="4.000000" fill="#785d54" />
<circle cx="121.479479" cy="643.893461" r="48.944320" stroke="#785d54" stroke-width="1.000000" fill-opacity="0" />
<circle cx="121.258774" cy="315.077190" r="4.000000" fill="#400658" />
<circle cx="121.258774" cy="315.077190" r="43.450400" stroke="#400658" stroke-width="1.000000" fill-opacity="0" />
<circle cx="420.248745" cy="81.736653" r="4.000000" fill="#0c497b" />
<circle cx="420.248745" cy="81.736653" r="46.257078" stroke="#0c497b" stroke-width="1.000000" fill-opacity="0" />
<circle cx="457.514011" cy="828.791852" r="4.000000" fill="#060536" />
<circle cx="457.514011" cy="828.791852" r="39.196942" stroke="#060536" stroke-width="1.000000" fill-opacity="0" />
<circle cx="811.708885" cy="560.349687" r="4.000000" fill="#47213b" />
<circle cx="811.708885" cy="560.349687" r="31.872547" stroke="#47213b" stroke-width="1.000000" fill-opacity="0" />
<circle cx="992.522240" cy="264.931892" r="4.000000" fill="#153754" />
<circle cx="992.522240" cy="264.931892" r="30.799069" stroke="#153754" stroke-width="1.000000" fill-opacity="0" />
<circle cx="120.523845" cy="741.428761" r="4.000000" fill="#21523d" />
<circle cx="120.523845" cy="741.428761" r="45.115375" stroke="#21523d" stroke-width="1.000000" fill-opacity="0" />
<circle cx="733.241004" cy="770.885821" r="4.000000" fill="#6f6477" />
<circle cx="733.241004" cy="770.885821" r="44.335591" stroke="#6f6477" stroke-width="1.000000" fill-opacity="0" />
<circle cx="701.503383" cy="999.841537" r="4.000000" fill="#75704d" />
<circle cx="701.503383" cy="999.841537" r="39.106429" stroke="#75704d" stroke-width="1.000000" fill-opacity="0" />
<circle cx="415.471321" cy="574.034205" r="4.000000" fill="#4d2107" />
<circle cx="415.471321" cy="574.034205" r="32.111862" stroke="#4d2107" stroke-width="1.000000" fill-opacity="0" />
<circle cx="158.845453" cy="867.720661" r="4.000000" fill="#481964" />
<circle cx="158.845453" cy="867.720661" r="38.301457" stroke="#481964" stroke-width="1.000000" fill-opacity="0" />
<circle cx="310.089144" cy="94.763121" r="4.000000" fill="#1c596a" />
<circle cx="310.089144" cy="94.763121" r="48.855894" stroke="#1c596a" stroke-width="1.000000" fill-opacity="0" />
<circle cx="867.129663" cy="473.439285" r="4.000000" fill="#746533" />
<circle cx="867.129663" cy="473.439285" r="47.885370" stroke="#746533" stroke-width="1.000000" fill-opacity="0" />
<circle cx="176.914916" cy="982.092940" r="4.000000" fill="#6f6b39" />
<circle cx="176.914916" cy="982.092940" r="72.808298" stroke="#6f6b39" stroke-width="1.000000" fill-opacity="0" />
</svg>
